<svg width="1588" height="238" viewBox="0 0 1588 238" fill="none" xmlns="http://www.w3.org/2000/svg">
<path d="M67.4141 49.3711C61.6198 49.3711 56.4766 50.5104 51.9844 52.7891C47.5573 55.0026 43.8138 58.2253 40.7539 62.457C37.7591 66.6237 35.4805 71.7344 33.918 77.7891C32.3555 83.7786 31.5742 90.5169 31.5742 98.0039C31.5742 105.621 32.2578 112.392 33.625 118.316C35.0573 124.241 37.2057 129.254 40.0703 133.355C43 137.392 46.7109 140.484 51.2031 142.633C55.7604 144.716 61.1641 145.758 67.4141 145.758C73.2083 145.758 79.0026 145.107 84.7969 143.805C90.6562 142.503 97.0039 140.647 103.84 138.238V163.629C100.715 164.931 97.6224 166.038 94.5625 166.949C91.5026 167.861 88.3776 168.609 85.1875 169.195C81.9974 169.781 78.7096 170.204 75.3242 170.465C72.0039 170.79 68.4232 170.953 64.582 170.953C53.5794 170.953 44.0417 169.195 35.9688 165.68C27.8958 162.164 21.2227 157.216 15.9492 150.836C10.6758 144.456 6.76953 136.773 4.23047 127.789C1.69141 118.805 0.421875 108.811 0.421875 97.8086C0.421875 87.0013 1.88672 77.1055 4.81641 68.1211C7.74609 59.0716 12.043 51.2917 17.707 44.7812C23.3711 38.2708 30.3698 33.2253 38.7031 29.6445C47.0365 25.9987 56.6068 24.1758 67.4141 24.1758C74.5104 24.1758 81.6068 25.0872 88.7031 26.9102C95.8646 28.668 102.701 31.1094 109.211 34.2344L99.4453 58.8438C94.1068 56.3047 88.7357 54.0911 83.332 52.2031C77.9284 50.3151 72.6224 49.3711 67.4141 49.3711Z" fill="#E5F5F8"/>
<path d="M152.77 114.215C152.77 125.087 154.299 133.29 157.359 138.824C160.419 144.293 165.4 147.027 172.301 147.027C179.137 147.027 184.085 144.26 187.145 138.727C190.204 133.193 191.734 125.022 191.734 114.215C191.734 103.342 190.204 95.237 187.145 89.8984C184.085 84.4948 179.072 81.793 172.105 81.793C165.27 81.793 160.322 84.4948 157.262 89.8984C154.267 95.237 152.77 103.342 152.77 114.215ZM222.105 114.215C222.105 123.329 220.934 131.402 218.59 138.434C216.311 145.465 212.991 151.389 208.629 156.207C204.332 161.025 199.059 164.703 192.809 167.242C186.624 169.716 179.658 170.953 171.91 170.953C164.684 170.953 158.043 169.716 151.988 167.242C145.934 164.703 140.693 161.025 136.266 156.207C131.904 151.389 128.486 145.465 126.012 138.434C123.538 131.402 122.301 123.329 122.301 114.215C122.301 105.165 123.44 97.125 125.719 90.0938C128.062 83.0625 131.383 77.1706 135.68 72.418C140.042 67.6003 145.315 63.9544 151.5 61.4805C157.685 59.0065 164.684 57.7695 172.496 57.7695C179.723 57.7695 186.363 59.0065 192.418 61.4805C198.473 63.9544 203.681 67.6003 208.043 72.418C212.47 77.1706 215.921 83.0625 218.395 90.0938C220.868 97.125 222.105 105.165 222.105 114.215Z" fill="#E5F5F8"/>
<path d="M338.613 169H308.828V105.23C308.828 97.3529 307.624 91.4609 305.215 87.5547C302.871 83.5833 299.095 81.5977 293.887 81.5977C289.98 81.5977 286.725 82.3789 284.121 83.9414C281.517 85.5039 279.434 87.8151 277.871 90.875C276.374 93.9349 275.299 97.7109 274.648 102.203C273.997 106.695 273.672 111.839 273.672 117.633V169H243.887V59.8203H266.641L270.645 73.7852H272.305C273.867 70.9857 275.755 68.5768 277.969 66.5586C280.247 64.5404 282.721 62.8802 285.391 61.5781C288.06 60.276 290.892 59.332 293.887 58.7461C296.882 58.0951 299.941 57.7695 303.066 57.7695C308.405 57.7695 313.255 58.5508 317.617 60.1133C321.979 61.6107 325.723 63.987 328.848 67.2422C331.973 70.4974 334.382 74.6641 336.074 79.7422C337.767 84.7552 338.613 90.7773 338.613 97.8086V169Z" fill="#E5F5F8"/>
<path d="M409.613 147.223C412.543 147.223 415.31 146.897 417.914 146.246C420.583 145.595 423.285 144.781 426.02 143.805V165.973C423.22 167.405 419.737 168.577 415.57 169.488C411.469 170.465 406.977 170.953 402.094 170.953C397.341 170.953 392.914 170.4 388.812 169.293C384.711 168.186 381.163 166.266 378.168 163.531C375.173 160.732 372.797 157.021 371.039 152.398C369.346 147.711 368.5 141.852 368.5 134.82V82.1836H354.242V69.5859L370.648 59.625L379.242 36.5781H398.285V59.8203H424.848V82.1836H398.285V134.82C398.285 139.052 399.327 142.177 401.41 144.195C403.493 146.214 406.228 147.223 409.613 147.223Z" fill="#E5F5F8"/>
<path d="M507.469 169L501.707 154.156H500.828C498.68 157.086 496.531 159.625 494.383 161.773C492.234 163.857 489.891 165.582 487.352 166.949C484.812 168.316 481.948 169.326 478.758 169.977C475.633 170.628 471.987 170.953 467.82 170.953C463.393 170.953 459.292 170.27 455.516 168.902C451.74 167.47 448.452 165.354 445.652 162.555C442.918 159.69 440.77 156.109 439.207 151.812C437.645 147.451 436.863 142.307 436.863 136.383C436.863 124.794 440.574 116.266 447.996 110.797C455.418 105.263 466.518 102.203 481.297 101.617L498.68 101.031V92.8281C498.68 88.3359 497.378 85.0156 494.773 82.8672C492.169 80.7188 488.523 79.6445 483.836 79.6445C479.148 79.6445 474.559 80.3281 470.066 81.6953C465.639 83.0625 461.18 84.8854 456.688 87.1641L447.02 67.4375C452.488 64.3776 458.543 61.9688 465.184 60.2109C471.824 58.4531 478.79 57.5742 486.082 57.5742C499.689 57.5742 510.105 60.7643 517.332 67.1445C524.624 73.5247 528.27 83.2253 528.27 96.2461V169H507.469ZM498.68 118.414L488.816 118.805C484.845 118.935 481.492 119.456 478.758 120.367C476.023 121.279 473.81 122.516 472.117 124.078C470.49 125.576 469.285 127.398 468.504 129.547C467.788 131.63 467.43 133.974 467.43 136.578C467.43 141.135 468.536 144.391 470.75 146.344C472.964 148.232 475.861 149.176 479.441 149.176C482.176 149.176 484.715 148.72 487.059 147.809C489.402 146.832 491.421 145.432 493.113 143.609C494.871 141.721 496.238 139.443 497.215 136.773C498.191 134.039 498.68 130.914 498.68 127.398V118.414Z" fill="#E5F5F8"/>
<path d="M600.344 170.953C592.531 170.953 585.467 169.879 579.152 167.73C572.902 165.582 567.531 162.262 563.039 157.77C558.612 153.212 555.194 147.418 552.785 140.387C550.441 133.29 549.27 124.827 549.27 114.996C549.27 104.124 550.474 95.0417 552.883 87.75C555.357 80.3932 558.807 74.5013 563.234 70.0742C567.727 65.6471 573.098 62.4896 579.348 60.6016C585.663 58.7135 592.661 57.7695 600.344 57.7695C605.943 57.7695 611.509 58.4531 617.043 59.8203C622.577 61.1875 627.785 63.1081 632.668 65.582L624.074 88.2383C619.777 86.3503 615.643 84.8203 611.672 83.6484C607.701 82.4115 603.924 81.793 600.344 81.793C593.117 81.793 587.876 84.5599 584.621 90.0938C581.366 95.5625 579.738 103.798 579.738 114.801C579.738 125.738 581.366 133.811 584.621 139.02C587.876 144.228 592.987 146.832 599.953 146.832C605.617 146.832 610.76 146.116 615.383 144.684C620.005 143.186 624.725 141.298 629.543 139.02V163.824C627.134 164.996 624.79 166.038 622.512 166.949C620.233 167.861 617.922 168.609 615.578 169.195C613.299 169.781 610.891 170.204 608.352 170.465C605.878 170.79 603.208 170.953 600.344 170.953Z" fill="#E5F5F8"/>
<path d="M695.074 147.223C698.004 147.223 700.771 146.897 703.375 146.246C706.044 145.595 708.746 144.781 711.48 143.805V165.973C708.681 167.405 705.198 168.577 701.031 169.488C696.93 170.465 692.438 170.953 687.555 170.953C682.802 170.953 678.375 170.4 674.273 169.293C670.172 168.186 666.624 166.266 663.629 163.531C660.634 160.732 658.258 157.021 656.5 152.398C654.807 147.711 653.961 141.852 653.961 134.82V82.1836H639.703V69.5859L656.109 59.625L664.703 36.5781H683.746V59.8203H710.309V82.1836H683.746V134.82C683.746 139.052 684.788 142.177 686.871 144.195C688.954 146.214 691.689 147.223 695.074 147.223Z" fill="#E5F5F8"/>
<path d="M888.051 26.2266V118.609C888.051 126.031 886.911 132.932 884.633 139.312C882.419 145.693 879.001 151.227 874.379 155.914C869.822 160.602 864.092 164.28 857.191 166.949C850.29 169.618 842.185 170.953 832.875 170.953C824.086 170.953 816.306 169.716 809.535 167.242C802.829 164.703 797.198 161.122 792.641 156.5C788.148 151.878 784.73 146.344 782.387 139.898C780.043 133.388 778.871 126.161 778.871 118.219V26.2266H809.047V115.973C809.047 121.246 809.568 125.771 810.609 129.547C811.651 133.258 813.181 136.318 815.199 138.727C817.283 141.07 819.854 142.796 822.914 143.902C825.974 145.009 829.555 145.562 833.656 145.562C842.185 145.562 848.337 143.089 852.113 138.141C855.954 133.193 857.875 125.738 857.875 115.777V26.2266H888.051Z" fill="#E5F5F8"/>
<path d="M989.422 136.578C989.422 142.307 988.38 147.32 986.297 151.617C984.214 155.914 981.251 159.495 977.41 162.359C973.569 165.224 968.914 167.372 963.445 168.805C957.977 170.237 951.857 170.953 945.086 170.953C941.505 170.953 938.185 170.823 935.125 170.562C932.065 170.367 929.168 170.009 926.434 169.488C923.699 168.967 921.062 168.316 918.523 167.535C915.984 166.754 913.413 165.777 910.809 164.605V139.996C913.543 141.363 916.408 142.6 919.402 143.707C922.462 144.814 925.49 145.79 928.484 146.637C931.479 147.418 934.376 148.036 937.176 148.492C940.04 148.948 942.677 149.176 945.086 149.176C947.755 149.176 950.034 148.948 951.922 148.492C953.81 147.971 955.34 147.288 956.512 146.441C957.749 145.53 958.628 144.488 959.148 143.316C959.734 142.079 960.027 140.777 960.027 139.41C960.027 138.043 959.799 136.839 959.344 135.797C958.953 134.69 958.009 133.551 956.512 132.379C955.014 131.142 952.801 129.775 949.871 128.277C947.007 126.715 943.133 124.827 938.25 122.613C933.497 120.465 929.363 118.349 925.848 116.266C922.397 114.117 919.533 111.741 917.254 109.137C915.04 106.533 913.38 103.57 912.273 100.25C911.167 96.8646 910.613 92.8607 910.613 88.2383C910.613 83.1602 911.59 78.7331 913.543 74.957C915.496 71.1159 918.263 67.9258 921.844 65.3867C925.424 62.8477 929.721 60.9596 934.734 59.7227C939.812 58.4206 945.444 57.7695 951.629 57.7695C958.139 57.7695 964.324 58.5182 970.184 60.0156C976.043 61.513 982.065 63.7591 988.25 66.7539L979.266 87.8477C974.318 85.5039 969.598 83.5833 965.105 82.0859C960.613 80.5885 956.121 79.8398 951.629 79.8398C947.592 79.8398 944.663 80.556 942.84 81.9883C941.082 83.4206 940.203 85.3737 940.203 87.8477C940.203 89.1497 940.431 90.3216 940.887 91.3633C941.342 92.3398 942.254 93.3815 943.621 94.4883C944.988 95.5299 946.909 96.7018 949.383 98.0039C951.857 99.2409 955.079 100.771 959.051 102.594C963.673 104.612 967.84 106.63 971.551 108.648C975.262 110.602 978.452 112.848 981.121 115.387C983.79 117.926 985.841 120.888 987.273 124.273C988.706 127.659 989.422 131.76 989.422 136.578Z" fill="#E5F5F8"/>
<path d="M1111.3 169H1081.13V51.4219H1045.29V26.2266H1147.05V51.4219H1111.3V169Z" fill="#E5F5F8"/>
<path d="M1175.37 114.215C1175.37 125.087 1176.9 133.29 1179.96 138.824C1183.02 144.293 1188 147.027 1194.9 147.027C1201.74 147.027 1206.69 144.26 1209.75 138.727C1212.81 133.193 1214.34 125.022 1214.34 114.215C1214.34 103.342 1212.81 95.237 1209.75 89.8984C1206.69 84.4948 1201.67 81.793 1194.71 81.793C1187.87 81.793 1182.92 84.4948 1179.86 89.8984C1176.87 95.237 1175.37 103.342 1175.37 114.215ZM1244.71 114.215C1244.71 123.329 1243.54 131.402 1241.19 138.434C1238.91 145.465 1235.59 151.389 1231.23 156.207C1226.93 161.025 1221.66 164.703 1215.41 167.242C1209.23 169.716 1202.26 170.953 1194.51 170.953C1187.29 170.953 1180.64 169.716 1174.59 167.242C1168.54 164.703 1163.29 161.025 1158.87 156.207C1154.51 151.389 1151.09 145.465 1148.61 138.434C1146.14 131.402 1144.9 123.329 1144.9 114.215C1144.9 105.165 1146.04 97.125 1148.32 90.0938C1150.66 83.0625 1153.98 77.1706 1158.28 72.418C1162.64 67.6003 1167.92 63.9544 1174.1 61.4805C1180.29 59.0065 1187.29 57.7695 1195.1 57.7695C1202.32 57.7695 1208.96 59.0065 1215.02 61.4805C1221.07 63.9544 1226.28 67.6003 1230.64 72.418C1235.07 77.1706 1238.52 83.0625 1241 90.0938C1243.47 97.125 1244.71 105.165 1244.71 114.215Z" fill="#E5F5F8"/>
<path d="M1298.62 170.953C1293.02 170.953 1287.91 169.749 1283.29 167.34C1278.66 164.931 1274.69 161.383 1271.37 156.695C1268.05 151.943 1265.45 146.051 1263.56 139.02C1261.74 131.988 1260.82 123.85 1260.82 114.605C1260.82 105.23 1261.74 97.0273 1263.56 89.9961C1265.45 82.8997 1268.08 76.9753 1271.47 72.2227C1274.92 67.4049 1279.02 63.7917 1283.77 61.3828C1288.53 58.974 1293.77 57.7695 1299.5 57.7695C1303.01 57.7695 1306.23 58.1927 1309.16 59.0391C1312.09 59.8203 1314.73 60.9596 1317.07 62.457C1319.42 63.8893 1321.5 65.582 1323.32 67.5352C1325.21 69.4232 1326.87 71.5065 1328.3 73.7852H1329.28C1328.89 71.2461 1328.53 68.6745 1328.21 66.0703C1327.88 63.8568 1327.59 61.513 1327.33 59.0391C1327.13 56.5 1327.04 54.1562 1327.04 52.0078V17.0469H1356.82V169H1334.07L1328.3 154.84H1327.04C1325.67 157.053 1324.11 159.169 1322.35 161.188C1320.59 163.141 1318.54 164.833 1316.2 166.266C1313.92 167.698 1311.31 168.837 1308.38 169.684C1305.52 170.53 1302.26 170.953 1298.62 170.953ZM1309.46 147.223C1312.97 147.223 1315.97 146.637 1318.44 145.465C1320.92 144.228 1322.9 142.405 1324.4 139.996C1325.96 137.522 1327.1 134.462 1327.82 130.816C1328.6 127.171 1329.02 122.906 1329.09 118.023V114.801C1329.09 109.527 1328.76 104.84 1328.11 100.738C1327.46 96.6367 1326.38 93.2188 1324.89 90.4844C1323.39 87.6849 1321.37 85.569 1318.83 84.1367C1316.29 82.7044 1313.1 81.9883 1309.26 81.9883C1303.01 81.9883 1298.42 84.8203 1295.49 90.4844C1292.56 96.0833 1291.1 104.254 1291.1 114.996C1291.1 125.738 1292.56 133.811 1295.49 139.215C1298.49 144.553 1303.14 147.223 1309.46 147.223Z" fill="#E5F5F8"/>
<path d="M1447.55 169L1441.79 154.156H1440.91C1438.76 157.086 1436.61 159.625 1434.46 161.773C1432.31 163.857 1429.97 165.582 1427.43 166.949C1424.89 168.316 1422.03 169.326 1418.84 169.977C1415.71 170.628 1412.07 170.953 1407.9 170.953C1403.47 170.953 1399.37 170.27 1395.59 168.902C1391.82 167.47 1388.53 165.354 1385.73 162.555C1383 159.69 1380.85 156.109 1379.29 151.812C1377.72 147.451 1376.94 142.307 1376.94 136.383C1376.94 124.794 1380.65 116.266 1388.07 110.797C1395.5 105.263 1406.6 102.203 1421.38 101.617L1438.76 101.031V92.8281C1438.76 88.3359 1437.46 85.0156 1434.85 82.8672C1432.25 80.7188 1428.6 79.6445 1423.91 79.6445C1419.23 79.6445 1414.64 80.3281 1410.14 81.6953C1405.72 83.0625 1401.26 84.8854 1396.77 87.1641L1387.1 67.4375C1392.57 64.3776 1398.62 61.9688 1405.26 60.2109C1411.9 58.4531 1418.87 57.5742 1426.16 57.5742C1439.77 57.5742 1450.18 60.7643 1457.41 67.1445C1464.7 73.5247 1468.35 83.2253 1468.35 96.2461V169H1447.55ZM1438.76 118.414L1428.89 118.805C1424.92 118.935 1421.57 119.456 1418.84 120.367C1416.1 121.279 1413.89 122.516 1412.2 124.078C1410.57 125.576 1409.36 127.398 1408.58 129.547C1407.87 131.63 1407.51 133.974 1407.51 136.578C1407.51 141.135 1408.61 144.391 1410.83 146.344C1413.04 148.232 1415.94 149.176 1419.52 149.176C1422.25 149.176 1424.79 148.72 1427.14 147.809C1429.48 146.832 1431.5 145.432 1433.19 143.609C1434.95 141.721 1436.32 139.443 1437.29 136.773C1438.27 134.039 1438.76 130.914 1438.76 127.398V118.414Z" fill="#E5F5F8"/>
<path d="M1479.39 59.8203H1512L1529.58 121.246C1530.62 124.632 1531.37 128.245 1531.83 132.086C1532.35 135.927 1532.67 139.378 1532.8 142.438H1533.39C1533.52 140.94 1533.68 139.28 1533.88 137.457C1534.14 135.634 1534.43 133.779 1534.76 131.891C1535.08 130.003 1535.44 128.147 1535.83 126.324C1536.29 124.436 1536.74 122.743 1537.2 121.246L1554.39 59.8203H1587.2L1544.04 182.965C1540 194.488 1534.5 203.049 1527.53 208.648C1520.57 214.247 1511.84 217.047 1501.36 217.047C1497.97 217.047 1495.04 216.852 1492.57 216.461C1490.1 216.135 1487.98 215.777 1486.22 215.387V191.754C1487.59 192.079 1489.32 192.372 1491.4 192.633C1493.48 192.893 1495.66 193.023 1497.94 193.023C1501.07 193.023 1503.74 192.6 1505.95 191.754C1508.16 190.908 1510.05 189.703 1511.61 188.141C1513.24 186.643 1514.61 184.82 1515.71 182.672C1516.89 180.523 1517.9 178.115 1518.74 175.445L1520.6 169.977L1479.39 59.8203Z" fill="#E5F5F8"/>
</svg>
