<svg width="1920" height="527" viewBox="0 0 1920 527" fill="none" xmlns="http://www.w3.org/2000/svg">
<path d="M456 245C456 370.921 353.921 473 228 473C102.079 473 -5.21111e-05 370.921 -4.11028e-05 245L-2.79019e-05 94L456 94L456 245Z" fill="#F2FAFB"/>
<ellipse cx="692" cy="348.5" rx="126" ry="124.5" fill="#FFFCF2"/>
<path d="M1254.08 94C1259.56 94 1264 98.4431 1264 103.924L1264 122C1264 214.784 1188.78 290 1096 290L1026 290C971.876 290 928 246.124 928 192C928 137.876 971.876 94 1026 94L1254.08 94Z" fill="#E5F5F8"/>
<path d="M1920 457C1920 465.837 1912.84 473 1904 473H1391C1382.16 473 1375 465.837 1375 457V294C1375 183.543 1464.54 94 1575 94H1904C1912.84 94 1920 101.163 1920 110V457Z" fill="#FFFCF2"/>
<mask id="mask0_2001_1213" style="mask-type:alpha" maskUnits="userSpaceOnUse" x="492" y="0" width="148" height="148">
<path d="M492.002 93.531C506.914 67.7032 539.94 58.8539 565.767 73.7656C550.856 99.5934 517.83 108.443 492.002 93.531Z" fill="#D9D9D9"/>
<path d="M565.766 73.7654C580.677 47.9376 613.703 39.0883 639.531 54C624.619 79.8278 591.593 88.6771 565.766 73.7654Z" fill="#D9D9D9"/>
<path d="M565.766 73.7654C580.677 47.9376 571.828 14.9117 546 0C531.089 25.8278 539.938 58.8537 565.766 73.7654Z" fill="#D9D9D9"/>
<path d="M585.533 147.531C600.445 121.703 591.596 88.6773 565.768 73.7656C550.856 99.5934 559.705 132.619 585.533 147.531Z" fill="#D9D9D9"/>
</mask>
<g mask="url(#mask0_2001_1213)">
<rect x="545.547" y="0.123047" width="108.664" height="108.664" transform="rotate(30 545.547 0.123047)" fill="#FFBC02" fill-opacity="0.4"/>
</g>
<mask id="mask1_2001_1213" style="mask-type:alpha" maskUnits="userSpaceOnUse" x="1304" y="379" width="148" height="148">
<path d="M1304 472.531C1318.91 446.703 1351.94 437.854 1377.77 452.766C1362.86 478.593 1329.83 487.443 1304 472.531Z" fill="#D9D9D9"/>
<path d="M1377.77 452.765C1392.68 426.938 1425.7 418.088 1451.53 433C1436.62 458.828 1403.59 467.677 1377.77 452.765Z" fill="#D9D9D9"/>
<path d="M1377.77 452.765C1392.68 426.938 1383.83 393.912 1358 379C1343.09 404.828 1351.94 437.854 1377.77 452.765Z" fill="#D9D9D9"/>
<path d="M1397.53 526.531C1412.44 500.703 1403.6 467.677 1377.77 452.766C1362.86 478.593 1371.71 511.619 1397.53 526.531Z" fill="#D9D9D9"/>
</mask>
<g mask="url(#mask1_2001_1213)">
<rect x="1357.55" y="379.123" width="108.664" height="108.664" transform="rotate(30 1357.55 379.123)" fill="#C2E8ED"/>
</g>
</svg>
