<svg width="39" height="40" viewBox="0 0 39 40" fill="none" xmlns="http://www.w3.org/2000/svg">
<path d="M19.8367 39.3202C9.18249 39.3202 0.513428 30.6544 0.513428 20.0002C0.513428 9.34596 9.18249 0.680176 19.8367 0.680176C24.6634 0.680176 29.2834 2.46846 32.8501 5.71689L33.4998 6.3108L27.1276 12.683L26.537 12.1777C24.6667 10.5764 22.2878 9.69377 19.8367 9.69377C14.1536 9.69377 9.52702 14.317 9.52702 20.0002C9.52702 25.6833 14.1536 30.3066 19.8367 30.3066C23.935 30.3066 27.1736 28.2131 28.6994 24.6464H18.9967V15.9478L37.9394 15.9741L38.0805 16.6402C39.0681 21.3291 38.2773 28.2263 34.2742 33.1613C30.9601 37.2464 26.1039 39.3202 19.8367 39.3202Z" fill="#111747"/>
</svg>
