<svg width="24" height="24" viewBox="0 0 24 24" fill="none" xmlns="http://www.w3.org/2000/svg">
<g clip-path="url(#clip0_181_875)">
<path d="M7.56809 7.4094C8.34467 7.4094 8.94868 6.79662 8.94868 6.05705V3.35235C8.94868 2.59165 8.3231 2 7.56809 2C6.79151 2 6.1875 2.61278 6.1875 3.35235V6.03592C6.1875 6.79662 6.79151 7.4094 7.56809 7.4094Z" fill="#FFBC02"/>
<path d="M16.154 7.4094C16.9306 7.4094 17.5346 6.79662 17.5346 6.05705V3.35235C17.5346 2.59165 16.909 2 16.154 2C15.3774 2 14.7734 2.61278 14.7734 3.35235V6.03592C14.7734 6.79662 15.3774 7.4094 16.154 7.4094Z" fill="#FFBC02"/>
<path d="M20.4684 4.70471H18.678V6.03593C18.678 7.38828 17.5562 8.5082 16.1541 8.5082C14.7735 8.5082 13.6302 7.38828 13.6302 6.03593V4.70471H10.0924V6.03593C10.0924 7.38828 8.97067 8.5082 7.56851 8.5082C6.18792 8.5082 5.04462 7.38828 5.04462 6.03593V4.70471H3.25416C2.41286 4.70471 1.74414 5.35976 1.74414 6.18385V20.5737C1.74414 21.3978 2.43444 22.0528 3.25416 22.0528H20.49C21.3313 22.0528 22 21.3978 22 20.5737V6.18385C22 5.35976 21.3097 4.70471 20.4684 4.70471ZM8.77653 17.5732C8.77653 17.869 8.51766 18.1226 8.21566 18.1226H6.36049C6.05849 18.1226 5.79963 17.869 5.79963 17.5732V16.1574C5.79963 15.8616 6.05849 15.608 6.36049 15.608H8.21566C8.51766 15.608 8.77653 15.8405 8.77653 16.1574V17.5732ZM8.77653 13.495C8.77653 13.7908 8.51766 14.0444 8.21566 14.0444H6.36049C6.05849 14.0444 5.79963 13.812 5.79963 13.495V12.0793C5.79963 11.7834 6.05849 11.5299 6.36049 11.5299H8.21566C8.51766 11.5299 8.77653 11.7834 8.77653 12.0793V13.495ZM13.3497 17.5732C13.3497 17.869 13.0909 18.1226 12.7889 18.1226H10.9337C10.6317 18.1226 10.3728 17.869 10.3728 17.5732V16.1574C10.3728 15.8616 10.6101 15.608 10.9337 15.608H12.7889C13.0909 15.608 13.3497 15.8405 13.3497 16.1574V17.5732ZM13.3497 13.495C13.3497 13.7908 13.0909 14.0444 12.7889 14.0444H10.9337C10.6317 14.0444 10.3728 13.812 10.3728 13.495V12.0793C10.3728 11.7834 10.6101 11.5299 10.9337 11.5299H12.7889C13.0909 11.5299 13.3497 11.7834 13.3497 12.0793V13.495ZM17.9014 17.5732C17.9014 17.869 17.6425 18.1226 17.3405 18.1226H15.5069C15.2049 18.1226 14.946 17.869 14.946 17.5732V16.1574C14.946 15.8616 15.2049 15.608 15.5069 15.608H17.3405C17.6425 15.608 17.9014 15.8405 17.9014 16.1574V17.5732ZM17.9014 13.495C17.9014 13.7908 17.6425 14.0444 17.3405 14.0444H15.5069C15.2049 14.0444 14.946 13.812 14.946 13.495V12.0793C14.946 11.7834 15.2049 11.5299 15.5069 11.5299H17.3405C17.6425 11.5299 17.9014 11.7834 17.9014 12.0793V13.495Z" fill="#FFBC02"/>
</g>
<defs>
<clipPath id="clip0_181_875">
<rect width="24" height="24" fill="white"/>
</clipPath>
</defs>
</svg>
