<svg width="24" height="24" viewBox="0 0 24 24" fill="none" xmlns="http://www.w3.org/2000/svg">
<g clip-path="url(#clip0_181_867)">
<path d="M14.7525 17.9587C14.1644 18.4656 13.6215 18.8692 13.1954 19.1624C12.8383 19.4079 12.419 19.531 12.0005 19.531C11.582 19.531 11.1627 19.4079 10.8056 19.1624C10.3803 18.87 9.83658 18.4664 9.24852 17.9587C6.78895 18.2479 5.06641 18.9113 5.06641 19.6852C5.06641 20.7236 8.17048 21.5657 11.9996 21.5657C15.8289 21.5657 18.9327 20.7236 18.9327 19.6852C18.9327 18.9121 17.2111 18.2479 14.7506 17.9587H14.7525Z" fill="#FFBC02"/>
<path d="M11.4349 18.3663C11.7733 18.5983 12.2275 18.5983 12.5659 18.3663C14.4392 17.0785 18.7559 13.5128 18.3809 8.24302C18.1644 5.21353 15.3621 2.84119 12.0008 2.84119C8.63948 2.84119 5.83715 5.21434 5.62072 8.24363C5.24485 13.5135 9.56152 17.0785 11.4348 18.367L11.4349 18.3663ZM12.0008 5.83081C13.7284 5.83081 15.1296 7.13696 15.1296 8.74742C15.1296 10.3587 13.7284 11.664 12.0008 11.664C10.2732 11.664 8.87211 10.3579 8.87211 8.74742C8.87211 7.13698 10.2732 5.83081 12.0008 5.83081Z" fill="#FFBC02"/>
</g>
<defs>
<clipPath id="clip0_181_867">
<rect width="24" height="24" fill="white"/>
</clipPath>
</defs>
</svg>
