<svg width="36" height="36" viewBox="0 0 36 36" fill="none" xmlns="http://www.w3.org/2000/svg">
<path d="M31.44 0.359863H4.55999C2.24159 0.359863 0.359985 2.24146 0.359985 4.55986V31.4399C0.359985 33.7583 2.24159 35.6399 4.55999 35.6399H31.44C33.7584 35.6399 35.64 33.7583 35.64 31.4399V4.55986C35.64 2.24146 33.7584 0.359863 31.44 0.359863ZM11.28 13.7999V29.7599H6.23998V13.7999H11.28ZM6.23998 9.15466C6.23998 7.97866 7.24799 7.07986 8.75998 7.07986C10.272 7.07986 11.2212 7.97866 11.28 9.15466C11.28 10.3307 10.3392 11.2799 8.75998 11.2799C7.24799 11.2799 6.23998 10.3307 6.23998 9.15466ZM29.76 29.7599H24.72C24.72 29.7599 24.72 21.9815 24.72 21.3599C24.72 19.6799 23.88 17.9999 21.78 17.9663H21.7128C19.68 17.9663 18.84 19.6967 18.84 21.3599C18.84 22.1243 18.84 29.7599 18.84 29.7599H13.8V13.7999H18.84V15.9503C18.84 15.9503 20.4612 13.7999 23.7204 13.7999C27.0552 13.7999 29.76 16.0931 29.76 20.7383V29.7599Z" fill="#111747"/>
</svg>
