<svg width="210" height="257" viewBox="0 0 210 257" fill="none" xmlns="http://www.w3.org/2000/svg">
<path d="M210 212.93C183.927 239.782 147.225 256.5 106.567 256.5C64.2554 256.5 26.224 238.391 0 209.598L64.5012 179.369C64.5012 179.369 66.197 161.508 61.2497 155.369C56.3024 149.23 55.8772 140.392 55.9723 137.23C56.0656 134.067 54.3698 135.091 52.8625 134.905C51.3534 134.719 50.0344 132.671 49.0924 128.578C48.1503 124.487 44.3801 118.904 41.5521 112.579C38.7259 106.254 38.7259 90.0667 40.61 87.835C42.496 85.6015 44.9454 90.4387 46.0759 90.2527C47.2064 90.0667 44.1917 75.5552 43.0612 69.2302C41.9289 62.9052 41.1053 47.23 41.7405 40.0442C42.3776 32.8584 50.5764 25.2529 51.4951 24.4168C52.4139 23.5791 50.1529 23.7881 49.3041 23.2301C48.4553 22.6722 54.8884 17.0912 59.2005 13.3238C63.5107 9.55626 69.025 11.2993 70.7926 11.5791C72.5583 11.859 76.1633 5.57811 80.6871 3.83542C85.2109 2.09078 88.3207 2.57964 92.7745 2.64872C97.2265 2.71957 97.8635 -0.90962 98.7823 1.11487C99.701 3.13759 94.7537 3.90452 95.389 4.7423C96.026 5.57813 101.185 4.39335 103.941 3.83542C106.698 3.27749 111.435 2.57964 118.22 2.02171C125.004 1.46218 130.8 4.25344 131.933 5.92723C133.063 7.60279 139.001 6.48691 139.001 7.32292C139.001 8.1607 133.345 8.43881 134.194 9.83452C135.043 11.2302 147.765 13.1839 152.712 16.2534C157.66 19.3229 160.346 20.1607 166.284 33.8344C172.222 47.5099 170.666 60.2076 170.101 70.114C169.536 80.0202 165.153 88.8107 166.707 89.6487C168.263 90.4865 169.394 86.2993 170.808 86.5792C172.222 86.8573 172.787 93.416 172.787 98.2993C172.787 103.184 172.222 109.463 167.273 116.44C162.325 123.417 163.786 131.277 161.525 134.161C159.263 137.044 157.384 130.667 156.341 139.928C156.201 141.175 156.011 142.39 155.799 143.534C155.072 147.452 153.409 151.126 151.103 154.394C142.838 166.11 148.803 179.741 148.803 179.741L210 212.93Z" fill="#C2E8ED"/>
</svg>
