<svg width="210" height="256" viewBox="0 0 210 256" fill="none" xmlns="http://www.w3.org/2000/svg">
<path d="M210 209.714C183.636 238.186 145.983 256 104.183 256C63.2407 256 26.2769 238.908 0 211.45L69.8854 184.37C69.8854 184.37 72.2511 176.857 70.674 174.683C69.0969 172.508 26.3239 181.207 20.4099 173.496C20.4099 173.496 19.2271 174.089 21.495 166.578C23.7612 159.065 34.0104 123.678 34.7989 117.551C35.5875 111.422 40.9101 77.0239 42.2901 70.5012C43.67 63.9767 43.8672 44.2074 46.6271 36.3007C49.3852 28.3923 59.2419 16.3337 68.3084 12.3794C77.3748 8.4252 85.3886 11.9822 90.6444 16.7255C90.4888 16.5531 85.5188 11.0462 85.1951 10.0069C84.8659 8.95304 86.9693 5.26363 96.3649 2.36326C105.76 -0.535303 120.741 -1.03049 130.793 2.36326C140.847 5.757 147.154 8.22749 156.813 24.0426C166.471 39.8577 167.786 50.5994 168.969 60.748C170.151 70.8966 180.269 134.553 180.269 134.553C180.269 134.553 185.921 159.856 185.132 161.042C184.343 162.228 148.074 175.408 139.664 175.671C139.664 175.671 138.679 181.998 140.453 184.964C142.061 187.65 199.293 206.253 210 209.714Z" fill="#C2E8ED"/>
</svg>
