<svg width="80" height="80" viewBox="0 0 80 80" fill="none" xmlns="http://www.w3.org/2000/svg">
<g clip-path="url(#clip0_76_748)">
<path d="M34.0489 47.1891C33.4366 47.1891 32.9406 46.7108 32.9406 46.1204V39.78C30.4163 39.267 28.607 37.1188 28.607 34.6313C28.607 32.1438 30.4163 29.9956 32.9406 29.4826V24.211H17.277C13.9936 24.2136 11.3308 26.7813 11.328 29.9475V46.1208C11.328 46.7113 10.832 47.1895 10.2197 47.1895C9.60731 47.1895 9.11133 46.7113 9.11133 46.1208V29.9475C9.11687 25.6003 12.7688 22.0787 17.2772 22.0732H34.0495C34.3432 22.0732 34.6258 22.1855 34.8337 22.3859C35.0415 22.5862 35.1578 22.8588 35.1578 23.142V30.4417C35.1578 30.7249 35.0415 30.9975 34.8337 31.1979C34.6258 31.3983 34.3432 31.5105 34.0495 31.5105C32.2623 31.5105 30.8131 32.9079 30.8131 34.6313C30.8131 36.3546 32.2623 37.752 34.0495 37.752C34.3432 37.752 34.6258 37.8642 34.8337 38.0646C35.0415 38.265 35.1578 38.5376 35.1578 38.8208V46.1205C35.1578 46.4037 35.0415 46.6762 34.8337 46.8766C34.6258 47.0771 34.3426 47.1891 34.0489 47.1891Z" fill="#FFBC02"/>
<path d="M63.1867 10.911H46.2391C45.6203 10.911 45.1192 11.3893 45.1192 11.9798V18.3201C42.5657 18.8331 40.7402 20.9813 40.7402 23.4688C40.7402 25.9564 42.5657 28.1045 45.1192 28.6175V34.9579C45.1192 35.2411 45.2367 35.5137 45.4467 35.7141C45.6567 35.9145 45.9423 36.0267 46.2391 36.0267H53.8997C54.1965 36.0267 54.4821 35.9145 54.6921 35.7141C54.9021 35.5137 55.0197 35.2411 55.0197 34.9579C55.0197 33.2372 56.4812 31.8425 58.2843 31.8425C60.0873 31.8425 61.5488 33.2372 61.5488 34.9579C61.5488 35.2411 61.6664 35.5137 61.8764 35.7141C62.0864 35.9145 62.372 36.0267 62.6688 36.0267H70.318C70.6147 36.0267 70.9003 35.9145 71.1103 35.7141C71.3203 35.5137 71.4379 35.2411 71.4379 34.9579V18.7846C71.4323 14.4375 67.7422 10.9165 63.1867 10.911Z" fill="#FFBC02"/>
<path d="M35.4205 52.7383V46.3979C35.4205 46.1147 35.3029 45.8421 35.093 45.6417C34.8831 45.4413 34.5976 45.3291 34.3009 45.3291H26.6545C26.036 45.3291 25.535 45.8074 25.535 46.3979C25.535 48.1186 24.074 49.5133 22.2716 49.5133C20.4692 49.5133 19.0082 48.1186 19.0082 46.3979C19.0082 46.1147 18.8907 45.8421 18.6808 45.6417C18.4709 45.4413 18.1854 45.3291 17.8887 45.3291H10.2308C9.61231 45.3291 9.11133 45.8074 9.11133 46.3979V62.5711C9.11693 66.9183 12.8057 70.4399 17.3596 70.4454H34.301C34.5976 70.4454 34.8831 70.3332 35.093 70.1328C35.303 69.9324 35.4205 69.6598 35.4205 69.3766V63.0362C37.9758 62.5286 39.809 60.3804 39.809 57.8875C39.809 55.3947 37.9757 53.2459 35.4205 52.7383Z" fill="#FFBC02"/>
<path d="M51.178 70.4448H34.4053C33.793 70.4448 33.297 69.959 33.297 69.3592C33.297 68.7594 33.793 68.2736 34.4053 68.2736H51.178C54.4615 68.2709 57.1244 65.6628 57.1272 62.4467V47.1047H50.6654C50.053 47.1047 49.557 46.6189 49.557 46.0191C49.557 44.2713 48.1106 42.8546 46.3261 42.8546C44.5417 42.8546 43.0952 44.2713 43.0952 46.0191C43.0952 46.3067 42.9788 46.5836 42.771 46.7871C42.5632 46.9907 42.2806 47.1047 41.9868 47.1047H34.4052C33.7929 47.1047 33.2969 46.6189 33.2969 46.0191C33.2969 45.4193 33.7929 44.9335 34.4052 44.9335H40.9889C41.5126 42.4556 43.7404 40.678 46.3257 40.678C48.9081 40.678 51.1359 42.4556 51.6596 44.9335H58.235C58.5287 44.9335 58.8114 45.0475 59.0192 45.251C59.227 45.4546 59.3434 45.7314 59.3434 46.0191V62.4471C59.3378 66.8628 55.6858 70.4399 51.1773 70.4454L51.178 70.4448Z" fill="#FFBC02"/>
</g>
<defs>
<clipPath id="clip0_76_748">
<rect width="80" height="80" fill="white"/>
</clipPath>
</defs>
</svg>
