<svg width="80" height="80" viewBox="0 0 80 80" fill="none" xmlns="http://www.w3.org/2000/svg">
<g clip-path="url(#clip0_76_761)">
<path d="M28.4679 69.6521H50.6883C54.7613 69.6521 58.0781 66.4169 58.0781 62.4443V17.8599C58.0781 13.8872 54.7613 10.6521 50.6883 10.6521H28.4679C24.3949 10.6521 21.0781 13.8873 21.0781 17.8599V62.4443C21.0781 66.417 24.395 69.6521 28.4679 69.6521ZM23.0944 17.8599C23.0944 14.9688 25.5039 12.6187 28.4679 12.6187H31.3614V13.661C31.3614 16.2472 33.5189 18.3515 36.1703 18.3515H42.9956C45.6471 18.3515 47.8045 16.2471 47.8045 13.661V12.6187H50.6879C53.652 12.6187 56.0615 14.9689 56.0615 17.8599V59.6319H23.0941L23.0944 17.8599Z" fill="#FFBC02"/>
<path d="M51.2768 25.9785L41.542 36.0913L34.8209 29.3337C34.4113 28.9219 33.747 28.9219 33.3349 29.3337L26.3853 36.321C25.9757 36.7328 25.9757 37.4007 26.3853 37.8151C26.7949 38.2269 27.4591 38.2269 27.8713 37.8151L34.0778 31.5748L40.8096 38.3433C41.0065 38.5412 41.2743 38.6521 41.5526 38.6521H41.5605C41.8414 38.6495 42.1119 38.5333 42.3062 38.3301L52.7816 27.4442C53.186 27.0245 53.1755 26.3567 52.758 25.9502C52.3432 25.5437 51.6763 25.5542 51.272 25.9739L51.2768 25.9785Z" fill="#FFBC02"/>
<path d="M48.0146 43.6521H31.1417C30.5541 43.6521 30.0781 44.0996 30.0781 44.6521C30.0781 45.2046 30.5541 45.6521 31.1417 45.6521H48.0146C48.6022 45.6521 49.0781 45.2046 49.0781 44.6521C49.0781 44.0996 48.6022 43.6521 48.0146 43.6521Z" fill="#FFBC02"/>
<path d="M44.1041 48.6521H35.0522C34.514 48.6521 34.0781 49.3234 34.0781 50.1521C34.0781 50.9808 34.514 51.6521 35.0522 51.6521H44.1041C44.6422 51.6521 45.0781 50.9808 45.0781 50.1521C45.0781 49.3234 44.6422 48.6521 44.1041 48.6521Z" fill="#FFBC02"/>
</g>
<defs>
<clipPath id="clip0_76_761">
<rect width="80" height="80" fill="white"/>
</clipPath>
</defs>
</svg>
