<svg width="80" height="80" viewBox="0 0 80 80" fill="none" xmlns="http://www.w3.org/2000/svg">
<g clip-path="url(#clip0_76_774)">
<path d="M24.3894 26.737C23.8845 26.2368 23.8845 25.4247 24.3844 24.922C24.8868 24.4192 25.7022 24.4192 26.2071 24.9169L27.9541 26.6541C28.459 27.1543 28.459 27.9664 27.9591 28.4691C27.4567 28.9719 26.6413 28.9719 26.1364 28.4741L24.3894 26.737ZM56.9538 58.6562L53.3867 69.7976C53.2125 70.3431 52.705 70.6926 52.1598 70.6926L26.9042 70.6976C26.2857 70.6976 25.7656 70.2627 25.6419 69.6845L22.1126 58.6531C21.8879 58.4445 21.6632 58.2308 21.4462 58.0121C16.8161 53.4015 13.9531 47.0335 13.9531 39.9999C13.9531 32.9664 16.816 26.5983 21.4462 21.9878C21.6633 21.7716 21.888 21.5579 22.1126 21.3467L25.6419 10.3153C25.7681 9.73714 26.2857 9.30225 26.9042 9.30225H52.1598C52.7051 9.30727 53.215 9.65671 53.3867 10.2022L56.9538 21.3436C57.1785 21.5523 57.4032 21.766 57.6229 21.9847C62.2529 26.5953 65.1159 32.9652 65.1159 39.9968C65.1159 47.031 62.2505 53.401 57.6229 58.009C57.4032 58.2277 57.1811 58.4414 56.9538 58.65V58.6562ZM55.7951 23.8083C51.6346 19.6654 45.8836 17.1011 39.5319 17.1011C33.1802 17.1011 27.4315 19.6653 23.2688 23.8083C19.1083 27.9513 16.5332 33.6781 16.5332 40.0031C16.5332 46.328 19.1082 52.0526 23.2688 56.1952C27.4293 60.3378 33.1802 62.9024 39.5319 62.9024C45.8836 62.9024 51.6323 60.3382 55.7951 56.1952C59.9555 52.0522 62.5306 46.3255 62.5306 40.0031C62.5306 33.678 59.9556 27.9536 55.7951 23.8083ZM55.4593 41.2876C54.7448 41.2876 54.1667 40.7119 54.1667 40.0005C54.1667 39.289 54.7448 38.7134 55.4593 38.7134H59.6627C60.3771 38.7134 60.9552 39.289 60.9552 40.0005C60.9552 40.7119 60.3771 41.2876 59.6627 41.2876H55.4593ZM19.4036 41.2876C18.6892 41.2876 18.1111 40.7119 18.1111 40.0005C18.1111 39.289 18.6892 38.7134 19.4036 38.7134H23.607C24.3215 38.7134 24.8996 39.289 24.8996 40.0005C24.8996 40.7119 24.3215 41.2876 23.607 41.2876H19.4036ZM38.2396 55.8586C38.2396 55.1471 38.8178 54.5715 39.5322 54.5715C40.2467 54.5715 40.8248 55.1472 40.8248 55.8586V60.0443C40.8248 60.7558 40.2467 61.3314 39.5322 61.3314C38.8178 61.3314 38.2396 60.7557 38.2396 60.0443V55.8586ZM38.2396 19.9547C38.2396 19.2432 38.8178 18.6675 39.5322 18.6675C40.2467 18.6675 40.8248 19.2432 40.8248 19.9547V24.1404C40.8248 24.8518 40.2467 25.4275 39.5322 25.4275C38.8178 25.4275 38.2396 24.8518 38.2396 24.1404V19.9547ZM52.9349 28.4742C52.43 28.977 51.612 28.977 51.1071 28.4742C50.6023 27.9714 50.6022 27.1569 51.1071 26.6541L52.8516 24.917C53.3565 24.4142 54.1745 24.4142 54.6793 24.917C55.1842 25.4198 55.1843 26.2343 54.6793 26.7371L52.9349 28.4742ZM26.2077 55.0844C25.7028 55.5847 24.8874 55.5822 24.385 55.0794C23.8826 54.5766 23.8851 53.7646 24.3901 53.2643L26.137 51.5272C26.6419 51.0269 27.4574 51.0294 27.9598 51.5322C28.4621 52.035 28.4596 52.847 27.9547 53.3473L26.2077 55.0844ZM51.1072 53.3473C50.6023 52.8445 50.6023 52.03 51.1072 51.5272C51.6121 51.0245 52.4301 51.0244 52.935 51.5272L54.6794 53.2643C55.1843 53.7671 55.1843 54.5816 54.6794 55.0844C54.1745 55.5872 53.3565 55.5872 52.8517 55.0844L51.1072 53.3473Z" fill="#FFBC02"/>
<path d="M30.4716 43V42.1136L32.5426 40.196C32.7188 40.0256 32.8665 39.8722 32.9858 39.7358C33.107 39.5994 33.1989 39.4659 33.2614 39.3352C33.3239 39.2027 33.3551 39.0597 33.3551 38.9062C33.3551 38.7358 33.3163 38.589 33.2386 38.4659C33.161 38.3409 33.0549 38.2453 32.9205 38.179C32.786 38.1108 32.6335 38.0767 32.4631 38.0767C32.285 38.0767 32.1297 38.1127 31.9972 38.1847C31.8646 38.2566 31.7623 38.3598 31.6903 38.4943C31.6184 38.6288 31.5824 38.7888 31.5824 38.9744H30.4148C30.4148 38.5937 30.5009 38.2633 30.6733 37.983C30.8456 37.7027 31.0871 37.4858 31.3977 37.3324C31.7083 37.179 32.0663 37.1023 32.4716 37.1023C32.8883 37.1023 33.2509 37.1761 33.5597 37.3239C33.8703 37.4697 34.1117 37.6723 34.2841 37.9318C34.4564 38.1913 34.5426 38.4886 34.5426 38.8239C34.5426 39.0436 34.4991 39.2604 34.4119 39.4744C34.3267 39.6884 34.1742 39.9261 33.9545 40.1875C33.7348 40.447 33.4252 40.7585 33.0256 41.1222L32.1761 41.9545V41.9943H34.6193V43H30.4716ZM35.2976 41.9773V41.0085L37.7266 37.1818H38.5618V38.5227H38.0675L36.5362 40.946V40.9915H39.9879V41.9773H35.2976ZM38.0902 43V41.6818L38.1129 41.2528V37.1818H39.2663V43H38.0902ZM43.353 36.9091L41.478 43.875H40.4354L42.3104 36.9091H43.353ZM44.1548 43L46.5668 38.2273V38.1875H43.7571V37.1818H47.8395V38.2017L45.4247 43H44.1548Z" fill="#FFBC02"/>
</g>
<defs>
<clipPath id="clip0_76_774">
<rect width="80" height="80" fill="white"/>
</clipPath>
</defs>
</svg>
