<svg width="80" height="80" viewBox="0 0 80 80" fill="none" xmlns="http://www.w3.org/2000/svg">
<g clip-path="url(#clip0_76_785)">
<path d="M41.3454 15.1747C40.5828 14.482 39.4187 14.482 38.656 15.1747L15.9257 35.8201C14.5722 37.0495 15.4419 39.3006 17.2704 39.3006H21.9276V64.0464C21.9276 65.151 22.8231 66.0464 23.9276 66.0464H56.0738C57.1784 66.0464 58.0738 65.151 58.0738 64.0464V39.3006H62.7311C64.5596 39.3006 65.4293 37.0495 64.0757 35.8201L41.3454 15.1747ZM49.9657 43.6369C49.9026 45.0669 49.3348 46.4683 48.2691 47.5551L43.6212 52.2885L41.7003 54.2477C40.7609 55.2058 39.2466 55.2058 38.3073 54.2477L31.7384 47.5551C30.6097 46.404 30.0418 44.9025 30.0279 43.3938C30.0138 41.8493 30.5816 40.305 31.7384 39.1251C33.0143 37.831 34.7179 37.259 36.3864 37.402C37.7043 37.5164 38.9943 38.0955 40.0038 39.1251C41.0133 38.0955 42.3032 37.5164 43.6212 37.402C45.2897 37.259 46.9932 37.831 48.2691 39.1251C49.482 40.3621 50.0498 42.0138 49.9657 43.6369Z" fill="#FFBC02"/>
</g>
<defs>
<clipPath id="clip0_76_785">
<rect width="80" height="80" fill="white"/>
</clipPath>
</defs>
</svg>
