<svg width="80" height="80" viewBox="0 0 80 80" fill="none" xmlns="http://www.w3.org/2000/svg">
<g clip-path="url(#clip0_76_795)">
<path d="M75.5549 31.7058C75.5549 31.3906 75.4287 31.1054 75.2232 30.8923C75.0147 30.6822 74.7387 30.5531 74.4246 30.5531C74.0693 30.5531 73.7141 30.5771 73.3706 30.6311C73.0242 30.6822 72.6865 30.7572 72.3547 30.8503V23.2494C72.3547 22.0246 71.8703 20.9259 71.0864 20.1214C70.3054 19.3198 69.2221 18.8245 68.0301 18.8245C67.6455 18.8245 67.2726 18.8786 66.9203 18.9716C66.568 19.0677 66.2303 19.2118 65.9162 19.3919C65.7753 18.3082 65.2497 17.3506 64.4894 16.6601C63.729 15.9727 62.7248 15.5554 61.6356 15.5554C60.5376 15.5554 59.5364 15.9727 58.776 16.6601C58.0156 17.3506 57.4901 18.3082 57.3492 19.3919C57.0409 19.2118 56.7033 19.0677 56.351 18.9716C55.9928 18.8786 55.6228 18.8245 55.2411 18.8245C54.1431 18.8245 53.1419 19.2418 52.3786 19.9322C51.6211 20.6197 51.0927 21.5803 50.9576 22.658C50.6435 22.4809 50.3117 22.3398 49.9594 22.2438C49.6012 22.1447 49.2313 22.0937 48.8467 22.0937C47.6547 22.0967 46.5743 22.589 45.7933 23.3935C45.0064 24.189 44.522 25.2968 44.522 26.5155V29.8207C44.4486 29.8567 44.3635 29.8717 44.2901 29.9077C42.7634 30.6912 41.225 32.5644 41.225 32.5644C41.225 32.5644 39.4575 30.6912 37.9308 29.9077C37.8575 29.8717 37.7723 29.8567 37.6989 29.8207V26.5155C37.6989 25.2998 37.2145 24.192 36.4306 23.3935C35.6437 22.589 34.5662 22.0967 33.3713 22.0937C32.9867 22.0937 32.6168 22.1477 32.2645 22.2438C31.9063 22.3368 31.5716 22.4809 31.2575 22.658C31.1195 21.5834 30.591 20.6227 29.8336 19.9322C29.0702 19.2418 28.069 18.8245 26.971 18.8245C26.5893 18.8245 26.2165 18.8786 25.8641 18.9716C25.5089 19.0677 25.1712 19.2118 24.8659 19.3919C24.722 18.3082 24.1965 17.3506 23.442 16.6601C22.6787 15.9727 21.6775 15.5554 20.5795 15.5554C19.4873 15.5554 18.4891 15.9727 17.7286 16.6601C16.9653 17.3506 16.4398 18.3082 16.2989 19.3919C15.9847 19.2118 15.6471 19.0677 15.2948 18.9716C14.9425 18.8786 14.5696 18.8245 14.185 18.8245C12.993 18.8245 11.9155 19.3168 11.1316 20.1214C10.3447 20.9259 9.86326 22.0246 9.86326 23.2494V30.8503C9.5315 30.7572 9.19387 30.6792 8.85033 30.6311C8.50389 30.5771 8.15157 30.5531 7.79343 30.5531C7.47928 30.5531 7.2033 30.6822 6.99778 30.8923C6.78933 31.1054 6.66895 31.3876 6.66602 31.7058V48.0541C6.66602 50.7618 7.13283 52.605 7.81687 53.9859C8.49507 55.3638 9.38463 56.2824 10.2126 57.141C10.9759 57.9275 11.6864 58.666 12.2031 59.7407C12.7228 60.8213 13.0516 62.2383 13.0516 64.3967C13.0516 64.7149 13.1779 65.0031 13.3863 65.2132C13.5918 65.4203 13.8708 65.5524 14.182 65.5524C14.4902 65.5524 14.778 65.4233 14.9805 65.2132C15.1802 65.0061 15.3123 64.7179 15.3123 64.3967C15.3123 61.764 14.8455 59.9718 14.1761 58.624C13.5067 57.2731 12.6347 56.3665 11.8127 55.5229C11.0346 54.7184 10.3124 53.9709 9.78104 52.8632C9.24964 51.7585 8.91497 50.2935 8.91497 48.0571V32.9908C10.0981 33.2549 11.1316 33.9243 11.8715 34.855C12.6113 35.7796 13.0517 36.9594 13.0517 38.2502V44.7854C13.0517 45.1066 13.1809 45.3918 13.3864 45.6019C13.5919 45.8091 13.8708 45.9382 14.1821 45.9382C16.5162 45.9382 18.633 46.9078 20.1626 48.4718C21.6922 50.0419 22.6434 52.2002 22.6434 54.5897C22.6434 54.9079 22.7726 55.1931 22.9723 55.4063C23.1778 55.6134 23.4626 55.7425 23.7708 55.7425C24.0791 55.7425 24.361 55.6164 24.5694 55.4063C24.7691 55.1931 24.8982 54.9109 24.9012 54.5897C24.8982 51.7649 23.8443 49.1802 22.1209 47.238C20.3945 45.2897 18.0017 43.9809 15.3095 43.6927V38.2472C15.3095 36.9474 14.9895 35.7286 14.4345 34.6539C13.8826 33.5792 13.0781 32.6575 12.1152 31.9611L12.1122 27.6053L12.1152 23.2495C12.1152 22.6611 12.3442 22.1328 12.72 21.7515C13.0958 21.3702 13.6096 21.1331 14.1791 21.1331C14.7487 21.1331 15.2654 21.3702 15.6412 21.7515C16.017 22.1328 16.249 22.6611 16.249 23.2495V38.2444C16.249 38.5626 16.3752 38.8507 16.5807 39.0609C16.7833 39.268 17.0651 39.4001 17.3793 39.4001C17.6876 39.4001 17.9724 39.268 18.1749 39.0609C18.3775 38.8538 18.5038 38.5656 18.5038 38.2444L18.5126 29.1154V19.9803C18.5126 19.4009 18.7416 18.8726 19.1144 18.4853C19.4961 18.1041 20.0128 17.8669 20.5795 17.8669C21.152 17.8669 21.6687 18.1041 22.0445 18.4853C22.4203 18.8696 22.6493 19.3979 22.6493 19.9803V35.278C21.9447 36.797 21.5131 38.466 21.5131 40.2552C21.5131 43.4553 22.7814 46.3521 24.8278 48.4412L32.1618 55.9401C31.4601 56.6785 30.7437 57.4771 30.18 58.6208C29.5107 59.9717 29.0468 61.7638 29.0468 64.3935C29.0468 64.7117 29.173 64.9999 29.3785 65.2101C29.5782 65.4172 29.86 65.5493 30.1742 65.5493C30.4883 65.5493 30.7643 65.4202 30.9728 65.2101C31.1753 65.0029 31.3016 64.7147 31.3045 64.3935C31.3045 62.2381 31.6334 60.8182 32.153 59.7375C32.5817 58.852 33.1483 58.2035 33.759 57.5641L41.1135 65.087L48.4622 57.5702C49.0729 58.2096 49.6424 58.858 50.0681 59.7436C50.5878 60.8242 50.9166 62.2412 50.9166 64.3996C50.9166 64.7178 51.0429 65.006 51.2454 65.2161C51.4539 65.4233 51.7299 65.5553 52.044 65.5553C52.3523 65.5553 52.64 65.4263 52.8397 65.2161C53.0422 65.009 53.1714 64.7208 53.1714 64.3996C53.1714 61.7669 52.7075 59.9747 52.0382 58.6269C51.4745 57.4831 50.7581 56.6847 50.0564 55.9461L57.3904 48.4473C59.4368 46.3549 60.7051 43.4581 60.7051 40.2613C60.7051 38.4721 60.2735 36.803 59.5689 35.287V19.9801C59.5689 19.4007 59.8008 18.8724 60.1737 18.4852C60.5466 18.1039 61.0633 17.8668 61.6387 17.8668C62.2054 17.8668 62.7221 18.1039 63.0979 18.4852C63.4708 18.8694 63.7027 19.3977 63.7027 19.9801V38.2473C63.7027 38.5655 63.8289 38.8537 64.0345 39.0638C64.2429 39.2709 64.5189 39.403 64.8301 39.403C65.1413 39.403 65.4232 39.2709 65.6287 39.0638C65.8313 38.8567 65.9604 38.5685 65.9604 38.2473V23.2524C65.9604 22.664 66.1953 22.1357 66.5653 21.7544C66.9411 21.3732 67.4578 21.136 68.0303 21.136C68.5998 21.136 69.1136 21.3732 69.4953 21.7544C69.8682 22.1357 70.0972 22.664 70.0972 23.2524V31.964C69.1342 32.6575 68.3326 33.5791 67.7778 34.6568C67.2229 35.7285 66.9029 36.9503 66.9058 38.2501L66.9029 40.9699V43.6957C64.2106 43.9839 61.8149 45.2927 60.0915 47.241C58.3651 49.1832 57.3141 51.7679 57.3111 54.5927C57.3141 54.9109 57.4403 55.1961 57.6429 55.4093C57.8514 55.6164 58.1273 55.7455 58.4415 55.7455C58.7498 55.7455 59.0375 55.6194 59.2401 55.4093C59.4397 55.1961 59.5718 54.9139 59.5718 54.5927C59.5718 52.2032 60.5201 50.0418 62.0527 48.4748C63.5824 46.9078 65.7021 45.9412 68.0332 45.9412C68.3474 45.9412 68.6233 45.8121 68.8318 45.6049C69.0344 45.3948 69.1635 45.1096 69.1635 44.7884V38.2532C69.1635 36.9653 69.6039 35.7826 70.3409 34.858C71.0807 33.9244 72.1142 33.255 73.2974 32.9938V48.0601C73.2974 50.2966 72.9627 51.7585 72.4313 52.8662C71.8999 53.9739 71.1776 54.7215 70.3996 55.5259C69.5775 56.3725 68.7056 57.279 68.0362 58.627C67.3668 59.9778 66.9 61.77 66.9 64.3997C66.9 64.7179 67.0292 65.0061 67.2289 65.2162C67.4344 65.4233 67.7192 65.5554 68.0274 65.5554C68.3416 65.5554 68.6176 65.4263 68.826 65.2162C69.0286 65.0091 69.1578 64.7209 69.1578 64.3997C69.1578 62.2443 69.4866 60.8244 70.0062 59.7437C70.523 58.672 71.2364 57.9335 71.9997 57.144C72.8306 56.2854 73.7173 55.3668 74.4013 53.9889C75.0795 52.605 75.5522 50.7649 75.5522 48.0571L75.5492 39.8795V31.705L75.5549 31.7058ZM31.9094 25.0235C32.2911 24.6423 32.8078 24.4051 33.3744 24.4051C33.944 24.4051 34.4607 24.6423 34.8336 25.0235C35.2094 25.4078 35.4443 25.9361 35.4443 26.5155V28.986C34.6104 28.7879 33.7414 28.6738 32.843 28.6738C32.3175 28.6738 31.8154 28.7639 31.3075 28.833L31.3046 26.5185C31.3075 25.9391 31.5365 25.4078 31.9094 25.0235ZM25.5149 21.7544C25.8907 21.3732 26.4074 21.136 26.9741 21.136C27.5495 21.136 28.0662 21.3732 28.4391 21.7544C28.8149 22.1357 29.0498 22.664 29.0498 23.2524V29.3884C27.4879 29.9617 26.0698 30.8383 24.913 32.006V30.7452L24.9101 23.2524C24.913 22.667 25.142 22.1357 25.5149 21.7544ZM53.7819 21.7544C54.1548 21.3732 54.6744 21.136 55.2469 21.136C55.8136 21.136 56.3303 21.3732 56.7061 21.7544C57.0789 22.1357 57.3109 22.664 57.3109 23.2524L57.308 30.7452V32.006C56.1512 30.8383 54.7331 29.9617 53.1712 29.3884V23.2524C53.1742 22.667 53.409 22.1357 53.7819 21.7544ZM46.7797 26.5155C46.7797 25.9361 47.0146 25.4078 47.3904 25.0235C47.7632 24.6423 48.2829 24.4051 48.8495 24.4051C49.4162 24.4051 49.9329 24.6423 50.3145 25.0235C50.6874 25.4078 50.9164 25.9361 50.9164 26.5155V28.83C50.4085 28.7609 49.9064 28.6709 49.378 28.6709C48.4854 28.6709 47.6134 28.7849 46.7797 28.9831L46.7797 26.5155Z" fill="#FFBC02"/>
</g>
<defs>
<clipPath id="clip0_76_795">
<rect width="80" height="80" fill="white"/>
</clipPath>
</defs>
</svg>
