<svg width="733" height="148" viewBox="0 0 733 148" fill="none" xmlns="http://www.w3.org/2000/svg">
<mask id="mask0_130_275" style="mask-type:alpha" maskUnits="userSpaceOnUse" x="0" y="0" width="149" height="148">
<path d="M0.501953 93.531C15.4136 67.7032 48.4395 58.8539 74.2673 73.7656C59.3556 99.5934 26.3298 108.443 0.501953 93.531Z" fill="#D9D9D9"/>
<path d="M74.2656 73.7654C89.1773 47.9376 122.203 39.0883 148.031 54C133.119 79.8278 100.093 88.6771 74.2656 73.7654Z" fill="#D9D9D9"/>
<path d="M74.2656 73.7654C89.1773 47.9376 80.3281 14.9117 54.5003 0C39.5886 25.8278 48.4378 58.8537 74.2656 73.7654Z" fill="#D9D9D9"/>
<path d="M94.0332 147.531C108.945 121.703 100.096 88.6773 74.2678 73.7656C59.3561 99.5934 68.2054 132.619 94.0332 147.531Z" fill="#D9D9D9"/>
</mask>
<g mask="url(#mask0_130_275)">
<rect x="54.0469" y="0.123047" width="108.664" height="108.664" transform="rotate(30 54.0469 0.123047)" fill="#FFFCF2"/>
</g>
<mask id="mask1_130_275" style="mask-type:alpha" maskUnits="userSpaceOnUse" x="146" y="0" width="149" height="148">
<path d="M146.549 93.531C161.461 67.7032 194.486 58.8539 220.314 73.7656C205.403 99.5934 172.377 108.443 146.549 93.531Z" fill="#D9D9D9"/>
<path d="M220.312 73.7654C235.224 47.9376 268.25 39.0883 294.078 54C279.166 79.8278 246.14 88.6771 220.312 73.7654Z" fill="#D9D9D9"/>
<path d="M220.312 73.7654C235.224 47.9376 226.375 14.9117 200.547 0C185.635 25.8278 194.485 58.8537 220.312 73.7654Z" fill="#D9D9D9"/>
<path d="M240.08 147.531C254.992 121.703 246.143 88.6773 220.315 73.7656C205.403 99.5934 214.252 132.619 240.08 147.531Z" fill="#D9D9D9"/>
</mask>
<g mask="url(#mask1_130_275)">
<rect x="200.094" y="0.123047" width="108.664" height="108.664" transform="rotate(30 200.094 0.123047)" fill="#FFFCF2"/>
</g>
<mask id="mask2_130_275" style="mask-type:alpha" maskUnits="userSpaceOnUse" x="438" y="0" width="149" height="148">
<path d="M438.549 93.531C453.461 67.7032 486.486 58.8539 512.314 73.7656C497.403 99.5934 464.377 108.443 438.549 93.531Z" fill="#D9D9D9"/>
<path d="M512.312 73.7654C527.224 47.9376 560.25 39.0883 586.078 54C571.166 79.8278 538.14 88.6771 512.312 73.7654Z" fill="#D9D9D9"/>
<path d="M512.312 73.7654C527.224 47.9376 518.375 14.9117 492.547 0C477.635 25.8278 486.485 58.8537 512.312 73.7654Z" fill="#D9D9D9"/>
<path d="M532.08 147.531C546.992 121.703 538.143 88.6773 512.315 73.7656C497.403 99.5934 506.252 132.619 532.08 147.531Z" fill="#D9D9D9"/>
</mask>
<g mask="url(#mask2_130_275)">
<rect x="492.094" y="0.123047" width="108.664" height="108.664" transform="rotate(30 492.094 0.123047)" fill="#FFFCF2"/>
</g>
<mask id="mask3_130_275" style="mask-type:alpha" maskUnits="userSpaceOnUse" x="292" y="0" width="149" height="148">
<path d="M292.549 93.531C307.461 67.7032 340.486 58.8539 366.314 73.7656C351.403 99.5934 318.377 108.443 292.549 93.531Z" fill="#D9D9D9"/>
<path d="M366.312 73.7654C381.224 47.9376 414.25 39.0883 440.078 54C425.166 79.8278 392.14 88.6771 366.312 73.7654Z" fill="#D9D9D9"/>
<path d="M366.312 73.7654C381.224 47.9376 372.375 14.9117 346.547 0C331.635 25.8278 340.485 58.8537 366.312 73.7654Z" fill="#D9D9D9"/>
<path d="M386.08 147.531C400.992 121.703 392.143 88.6773 366.315 73.7656C351.403 99.5934 360.252 132.619 386.08 147.531Z" fill="#D9D9D9"/>
</mask>
<g mask="url(#mask3_130_275)">
<rect x="346.094" y="0.123047" width="108.664" height="108.664" transform="rotate(30 346.094 0.123047)" fill="#FFFCF2"/>
</g>
<mask id="mask4_130_275" style="mask-type:alpha" maskUnits="userSpaceOnUse" x="584" y="0" width="149" height="148">
<path d="M584.549 93.531C599.461 67.7032 632.486 58.8539 658.314 73.7656C643.403 99.5934 610.377 108.443 584.549 93.531Z" fill="#D9D9D9"/>
<path d="M658.312 73.7654C673.224 47.9376 706.25 39.0883 732.078 54C717.166 79.8278 684.14 88.6771 658.312 73.7654Z" fill="#D9D9D9"/>
<path d="M658.312 73.7654C673.224 47.9376 664.375 14.9117 638.547 0C623.635 25.8278 632.485 58.8537 658.312 73.7654Z" fill="#D9D9D9"/>
<path d="M678.08 147.531C692.992 121.703 684.143 88.6773 658.315 73.7656C643.403 99.5934 652.252 132.619 678.08 147.531Z" fill="#D9D9D9"/>
</mask>
<g mask="url(#mask4_130_275)">
<rect x="638.094" y="0.123047" width="108.664" height="108.664" transform="rotate(30 638.094 0.123047)" fill="#FFFCF2"/>
</g>
</svg>
