<svg width="133" height="133" viewBox="0 0 133 133" fill="none" xmlns="http://www.w3.org/2000/svg">
<mask id="mask0_2052_47" style="mask-type:alpha" maskUnits="userSpaceOnUse" x="0" y="-1" width="133" height="134">
<path d="M0.00228727 104.319C7.72115 75.512 37.3313 58.4165 66.1385 66.1354C58.4197 94.9426 28.8095 112.038 0.00228727 104.319Z" fill="#D9D9D9"/>
<path d="M66.1371 66.1356C73.8559 37.3284 103.466 20.233 132.273 27.9518C124.554 56.759 94.9442 73.8544 66.1371 66.1356Z" fill="#D9D9D9"/>
<path d="M66.1371 66.1356C73.8559 37.3284 56.7605 7.71822 27.9533 -0.000642419C20.2344 28.8065 37.3299 58.4167 66.1371 66.1356Z" fill="#D9D9D9"/>
<path d="M104.323 132.271C112.041 103.464 94.946 73.854 66.1388 66.1351C58.42 94.9423 75.5154 124.552 104.323 132.271Z" fill="#D9D9D9"/>
</mask>
<g mask="url(#mask0_2052_47)">
<rect x="27.5469" y="0.236328" width="108.664" height="108.664" transform="rotate(15 27.5469 0.236328)" fill="#2EB1C5"/>
</g>
</svg>
