<svg width="16" height="16" viewBox="0 0 16 16" fill="none" xmlns="http://www.w3.org/2000/svg">
<path d="M8.68539 1.33398C9.43539 1.33598 9.81605 1.33998 10.1447 1.34932L10.2741 1.35398C10.4234 1.35932 10.5707 1.36598 10.7487 1.37398C11.4581 1.40732 11.9421 1.51932 12.3667 1.68398C12.8067 1.85332 13.1774 2.08265 13.5481 2.45265C13.8872 2.78581 14.1495 3.18897 14.3167 3.63398C14.4814 4.05865 14.5934 4.54265 14.6267 5.25265C14.6347 5.42998 14.6414 5.57732 14.6467 5.72732L14.6507 5.85665C14.6607 6.18465 14.6647 6.56532 14.6661 7.31532L14.6667 7.81265V8.68598C14.6683 9.17225 14.6632 9.65852 14.6514 10.1447L14.6474 10.274C14.6421 10.424 14.6354 10.5713 14.6274 10.7487C14.5941 11.4587 14.4807 11.942 14.3167 12.3673C14.1495 12.8123 13.8872 13.2155 13.5481 13.5487C13.2149 13.8878 12.8117 14.1501 12.3667 14.3173C11.9421 14.482 11.4581 14.594 10.7487 14.6273L10.2741 14.6473L10.1447 14.6513C9.81605 14.6607 9.43539 14.6653 8.68539 14.6667L8.18805 14.6673H7.31539C6.82889 14.669 6.3424 14.6639 5.85605 14.652L5.72672 14.648C5.56846 14.642 5.41024 14.6351 5.25205 14.6273C4.54272 14.594 4.05872 14.482 3.63339 14.3173C3.18861 14.15 2.78568 13.8877 2.45272 13.5487C2.11335 13.2156 1.85079 12.8124 1.68339 12.3673C1.51872 11.9427 1.40672 11.4587 1.37339 10.7487L1.35339 10.274L1.35005 10.1447C1.33776 9.65853 1.33221 9.17226 1.33339 8.68598V7.31532C1.33154 6.82905 1.33643 6.34278 1.34805 5.85665L1.35272 5.72732C1.35805 5.57732 1.36472 5.42998 1.37272 5.25265C1.40605 4.54265 1.51805 4.05932 1.68272 3.63398C1.85052 3.18878 2.11354 2.78561 2.45339 2.45265C2.78616 2.11368 3.18885 1.85137 3.63339 1.68398C4.05872 1.51932 4.54205 1.40732 5.25205 1.37398C5.42939 1.36598 5.57739 1.35932 5.72672 1.35398L5.85605 1.34998C6.34218 1.33814 6.82845 1.33303 7.31472 1.33465L8.68539 1.33398ZM8.00005 4.66732C7.116 4.66732 6.26815 5.01851 5.64303 5.64363C5.01791 6.26875 4.66672 7.1166 4.66672 8.00065C4.66672 8.88471 5.01791 9.73255 5.64303 10.3577C6.26815 10.9828 7.116 11.334 8.00005 11.334C8.88411 11.334 9.73195 10.9828 10.3571 10.3577C10.9822 9.73255 11.3334 8.88471 11.3334 8.00065C11.3334 7.1166 10.9822 6.26875 10.3571 5.64363C9.73195 5.01851 8.88411 4.66732 8.00005 4.66732ZM8.00005 6.00065C8.2627 6.00061 8.52278 6.0523 8.76545 6.15276C9.00811 6.25323 9.22862 6.40052 9.41436 6.5862C9.60011 6.77189 9.74747 6.99234 9.84802 7.23498C9.94857 7.47761 10.0003 7.73767 10.0004 8.00032C10.0004 8.26296 9.94874 8.52304 9.84827 8.76571C9.7478 9.00838 9.60052 9.22888 9.41484 9.41463C9.22915 9.60038 9.0087 9.74773 8.76606 9.84828C8.52343 9.94883 8.26336 10.0006 8.00072 10.0007C7.47029 10.0007 6.96158 9.78994 6.58651 9.41487C6.21143 9.03979 6.00072 8.53108 6.00072 8.00065C6.00072 7.47022 6.21143 6.96151 6.58651 6.58644C6.96158 6.21136 7.47029 6.00065 8.00072 6.00065M11.5007 3.66732C11.2797 3.66732 11.0677 3.75512 10.9115 3.9114C10.7552 4.06768 10.6674 4.27964 10.6674 4.50065C10.6674 4.72166 10.7552 4.93363 10.9115 5.08991C11.0677 5.24619 11.2797 5.33398 11.5007 5.33398C11.7217 5.33398 11.9337 5.24619 12.09 5.08991C12.2463 4.93363 12.3341 4.72166 12.3341 4.50065C12.3341 4.27964 12.2463 4.06768 12.09 3.9114C11.9337 3.75512 11.7217 3.66732 11.5007 3.66732Z" fill="white"/>
</svg>
