<svg width="16" height="16" viewBox="0 0 16 16" fill="none" xmlns="http://www.w3.org/2000/svg">
<path fill-rule="evenodd" clip-rule="evenodd" d="M8.33991 5.864V6.99533C8.57683 6.63445 8.90339 6.34127 9.28763 6.14447C9.67187 5.94768 10.1006 5.85402 10.5319 5.87267C12.8352 5.87267 13.3332 7.31267 13.3332 9.186V13H11.1999V9.61867C11.1999 8.812 11.0372 7.77467 9.78125 7.77467C8.56325 7.77467 8.35525 8.65267 8.35525 9.55867V13H6.22858V5.864H8.33991ZM4.79991 4.07067C4.79965 4.282 4.73701 4.48856 4.61983 4.66444C4.50266 4.84031 4.33617 4.97769 4.14125 5.05933C3.9464 5.14032 3.73186 5.16151 3.52494 5.12019C3.31801 5.07888 3.12806 4.97693 2.97925 4.82733C2.83016 4.67764 2.72866 4.4872 2.68751 4.27998C2.64636 4.07275 2.6674 3.85798 2.74799 3.66268C2.82857 3.46738 2.9651 3.30027 3.14041 3.18236C3.31572 3.06445 3.52198 3.001 3.73325 3C3.87366 3 4.01269 3.02772 4.14237 3.08158C4.27204 3.13543 4.38981 3.21436 4.48891 3.31383C4.58801 3.41331 4.6665 3.53137 4.71987 3.66124C4.77324 3.79112 4.80044 3.93025 4.79991 4.07067Z" fill="white"/>
<path d="M4.80033 5.87207H2.66699V12.9994H4.80033V5.87207Z" fill="white"/>
</svg>
