<svg width="40" height="40" viewBox="0 0 40 40" fill="none" xmlns="http://www.w3.org/2000/svg">
<g clip-path="url(#clip0_364_6354)">
<path d="M12.1947 13.3688C11.9423 13.1186 11.9423 12.7126 12.1922 12.4612C12.4434 12.2098 12.8511 12.2098 13.1035 12.4587L13.977 13.3273C14.2295 13.5774 14.2295 13.9834 13.9796 14.2348C13.7284 14.4862 13.3206 14.4862 13.0682 14.2373L12.1947 13.3688ZM28.4769 29.3283L26.6933 34.8991C26.6062 35.1718 26.3525 35.3465 26.0799 35.3465L13.4521 35.349C13.1428 35.349 12.8828 35.1316 12.821 34.8425L11.0563 29.3268C10.944 29.2225 10.8316 29.1156 10.7231 29.0063C8.40805 26.701 6.97656 23.517 6.97656 20.0002C6.97656 16.4834 8.40799 13.2994 10.7231 10.9941C10.8316 10.886 10.944 10.7792 11.0563 10.6736L12.821 5.15792C12.8841 4.86882 13.1428 4.65137 13.4521 4.65137H26.0799C26.3525 4.65388 26.6075 4.8286 26.6933 5.10135L28.4769 10.6721C28.5893 10.7764 28.7016 10.8832 28.8114 10.9926C31.1265 13.2979 32.558 16.4829 32.558 19.9987C32.558 23.5158 31.1253 26.7008 28.8114 29.0047C28.7016 29.1141 28.5905 29.2209 28.4769 29.3253V29.3283ZM27.8975 11.9044C25.8173 9.83294 22.9418 8.55079 19.766 8.55079C16.5901 8.55079 13.7157 9.8329 11.6344 11.9044C9.55415 13.9759 8.26658 16.8393 8.26658 20.0018C8.26658 23.1643 9.55411 26.0265 11.6344 28.0978C13.7146 30.1692 16.5901 31.4515 19.766 31.4515C22.9418 31.4515 25.8162 30.1694 27.8975 28.0978C29.9778 26.0264 31.2653 23.163 31.2653 20.0018C31.2653 16.8393 29.9778 13.977 27.8975 11.9044ZM27.7296 20.6441C27.3724 20.6441 27.0834 20.3562 27.0834 20.0005C27.0834 19.6448 27.3724 19.3569 27.7296 19.3569H29.8313C30.1886 19.3569 30.4776 19.6448 30.4776 20.0005C30.4776 20.3562 30.1886 20.6441 29.8313 20.6441H27.7296ZM9.70181 20.6441C9.34458 20.6441 9.05553 20.3562 9.05553 20.0005C9.05553 19.6448 9.34459 19.3569 9.70181 19.3569H11.8035C12.1607 19.3569 12.4498 19.6448 12.4498 20.0005C12.4498 20.3562 12.1607 20.6441 11.8035 20.6441H9.70181ZM19.1198 27.9295C19.1198 27.5738 19.4089 27.286 19.7661 27.286C20.1233 27.286 20.4124 27.5738 20.4124 27.9295V30.0224C20.4124 30.3781 20.1233 30.666 19.7661 30.666C19.4089 30.666 19.1198 30.3781 19.1198 30.0224V27.9295ZM19.1198 9.97758C19.1198 9.62185 19.4089 9.33401 19.7661 9.33401C20.1233 9.33401 20.4124 9.62186 20.4124 9.97758V12.0704C20.4124 12.4262 20.1233 12.714 19.7661 12.714C19.4089 12.714 19.1198 12.4261 19.1198 12.0704V9.97758ZM26.4674 14.2373C26.215 14.4887 25.806 14.4887 25.5536 14.2373C25.3011 13.986 25.3011 13.5787 25.5536 13.3273L26.4258 12.4588C26.6782 12.2074 27.0872 12.2074 27.3397 12.4588C27.5921 12.7101 27.5921 13.1174 27.3397 13.3688L26.4674 14.2373ZM13.1039 27.5424C12.8514 27.7926 12.4437 27.7913 12.1925 27.5399C11.9413 27.2885 11.9426 26.8825 12.195 26.6324L13.0685 25.7638C13.321 25.5137 13.7287 25.515 13.9799 25.7664C14.2311 26.0178 14.2298 26.4238 13.9774 26.6739L13.1039 27.5424ZM25.5536 26.6739C25.3011 26.4225 25.3011 26.0152 25.5536 25.7639C25.8061 25.5125 26.215 25.5125 26.4675 25.7639L27.3397 26.6324C27.5922 26.8838 27.5922 27.2911 27.3397 27.5424C27.0873 27.7938 26.6783 27.7938 26.4258 27.5424L25.5536 26.6739Z" fill="#FFBC02"/>
<path d="M15.6831 22V21.5568L16.7186 20.598C16.8066 20.5128 16.8805 20.4361 16.9402 20.3679C17.0008 20.2997 17.0467 20.233 17.0779 20.1676C17.1092 20.1013 17.1248 20.0298 17.1248 19.9531C17.1248 19.8679 17.1054 19.7945 17.0666 19.733C17.0278 19.6705 16.9747 19.6226 16.9075 19.5895C16.8403 19.5554 16.764 19.5384 16.6788 19.5384C16.5898 19.5384 16.5121 19.5563 16.4458 19.5923C16.3796 19.6283 16.3284 19.6799 16.2924 19.7472C16.2565 19.8144 16.2385 19.8944 16.2385 19.9872H15.6547C15.6547 19.7969 15.6977 19.6316 15.7839 19.4915C15.8701 19.3513 15.9908 19.2429 16.1461 19.1662C16.3014 19.0895 16.4804 19.0511 16.6831 19.0511C16.8914 19.0511 17.0727 19.0881 17.2271 19.1619C17.3824 19.2348 17.5031 19.3362 17.5893 19.4659C17.6755 19.5956 17.7186 19.7443 17.7186 19.9119C17.7186 20.0218 17.6968 20.1302 17.6532 20.2372C17.6106 20.3442 17.5344 20.4631 17.4245 20.5938C17.3147 20.7235 17.1599 20.8793 16.96 21.0611L16.5353 21.4773V21.4972H17.7569V22H15.6831ZM18.0961 21.4886V21.0043L19.3105 19.0909H19.7282V19.7614H19.481L18.7154 20.973V20.9957H20.4412V21.4886H18.0961ZM19.4924 22V21.3409L19.5037 21.1264V19.0909H20.0804V22H19.4924ZM22.1238 18.9545L21.1863 22.4375H20.665L21.6025 18.9545H22.1238ZM22.5247 22L23.7306 19.6136V19.5938H22.3258V19.0909H24.367V19.6009L23.1596 22H22.5247Z" fill="#FFBC02"/>
</g>
<defs>
<clipPath id="clip0_364_6354">
<rect width="40" height="40" fill="white"/>
</clipPath>
</defs>
</svg>
