<svg width="40" height="40" viewBox="0 0 40 40" fill="none" xmlns="http://www.w3.org/2000/svg">
<g clip-path="url(#clip0_364_6362)">
<path d="M17.0254 23.595C16.7193 23.595 16.4713 23.3559 16.4713 23.0607V19.8905C15.2091 19.634 14.3045 18.5599 14.3045 17.3161C14.3045 16.0724 15.2091 14.9983 16.4713 14.7418V12.106H8.63948C6.99775 12.1073 5.66636 13.3911 5.66498 14.9742V23.0609C5.66498 23.3561 5.41699 23.5952 5.11081 23.5952C4.80463 23.5952 4.55664 23.3561 4.55664 23.0609V14.9742C4.55941 12.8006 6.38538 11.0398 8.63958 11.0371H17.0257C17.1726 11.0371 17.3139 11.0932 17.4178 11.1934C17.5217 11.2936 17.5799 11.4299 17.5799 11.5715V15.2213C17.5799 15.363 17.5217 15.4992 17.4178 15.5994C17.3139 15.6996 17.1726 15.7557 17.0257 15.7557C16.1321 15.7557 15.4075 16.4544 15.4075 17.3161C15.4075 18.1778 16.1321 18.8765 17.0257 18.8765C17.1726 18.8765 17.3139 18.9326 17.4178 19.0328C17.5217 19.133 17.5799 19.2693 17.5799 19.4109V23.0607C17.5799 23.2023 17.5217 23.3386 17.4178 23.4388C17.3139 23.539 17.1723 23.595 17.0254 23.595Z" fill="#FFBC02"/>
<path d="M31.5943 5.45539H23.1205C22.8111 5.45539 22.5606 5.69452 22.5606 5.98976V9.15995C21.2838 9.41645 20.3711 10.4905 20.3711 11.7343C20.3711 12.9781 21.2838 14.0521 22.5606 14.3086V17.4788C22.5606 17.6204 22.6193 17.7567 22.7243 17.8569C22.8293 17.9571 22.9721 18.0132 23.1205 18.0132H26.9508C27.0992 18.0132 27.242 17.9571 27.347 17.8569C27.452 17.7567 27.5108 17.6204 27.5108 17.4788C27.5108 16.6185 28.2416 15.9211 29.1431 15.9211C30.0446 15.9211 30.7754 16.6185 30.7754 17.4788C30.7754 17.6204 30.8342 17.7567 30.9392 17.8569C31.0442 17.9571 31.187 18.0132 31.3354 18.0132H35.16C35.3083 18.0132 35.4511 17.9571 35.5561 17.8569C35.6611 17.7567 35.7199 17.6204 35.7199 17.4788V9.3922C35.7171 7.21861 33.8721 5.45812 31.5943 5.45539Z" fill="#FFBC02"/>
<path d="M17.7112 26.3686V23.1985C17.7112 23.0569 17.6524 22.9206 17.5475 22.8204C17.4425 22.7202 17.2998 22.6641 17.1514 22.6641H13.3282C13.019 22.6641 12.7685 22.9032 12.7685 23.1985C12.7685 24.0588 12.038 24.7562 11.1368 24.7562C10.2356 24.7562 9.50509 24.0588 9.50509 23.1985C9.50509 23.0568 9.44631 22.9206 9.34136 22.8204C9.2364 22.7202 9.09367 22.6641 8.94532 22.6641H5.1164C4.80713 22.6641 4.55664 22.9032 4.55664 23.1984V31.2851C4.55944 33.4587 6.40382 35.2195 8.68076 35.2222H17.1515C17.2998 35.2222 17.4425 35.1661 17.5475 35.0659C17.6525 34.9657 17.7112 34.8294 17.7112 34.6878V31.5176C18.9889 31.2638 19.9055 30.1897 19.9055 28.9433C19.9055 27.6969 18.9888 26.6224 17.7112 26.3686Z" fill="#FFBC02"/>
<path d="M25.589 35.2223H17.2027C16.8965 35.2223 16.6485 34.9794 16.6485 34.6795C16.6485 34.3796 16.8965 34.1367 17.2027 34.1367H25.589C27.2308 34.1353 28.5622 32.8313 28.5636 31.2232V23.5522H25.3327C25.0265 23.5522 24.7785 23.3093 24.7785 23.0094C24.7785 22.1355 24.0553 21.4272 23.1631 21.4272C22.2708 21.4272 21.5476 22.1355 21.5476 23.0094C21.5476 23.1532 21.4894 23.2917 21.3855 23.3934C21.2816 23.4952 21.1403 23.5522 20.9934 23.5522H17.2026C16.8964 23.5522 16.6484 23.3093 16.6484 23.0094C16.6484 22.7095 16.8964 22.4666 17.2026 22.4666H20.4944C20.7563 21.2277 21.8702 20.3389 23.1628 20.3389C24.4541 20.3389 25.568 21.2277 25.8298 22.4666H29.1175C29.2644 22.4666 29.4057 22.5236 29.5096 22.6254C29.6135 22.7272 29.6717 22.8656 29.6717 23.0094V31.2234C29.6689 33.4313 27.8429 35.2198 25.5887 35.2226L25.589 35.2223Z" fill="#FFBC02"/>
</g>
<defs>
<clipPath id="clip0_364_6362">
<rect width="40" height="40" fill="white"/>
</clipPath>
</defs>
</svg>
