<svg width="40" height="40" viewBox="0 0 40 40" fill="none" xmlns="http://www.w3.org/2000/svg">
<g clip-path="url(#clip0_364_6372)">
<path d="M19.7445 15.3908C19.824 15.4264 19.9149 15.4467 20.0001 15.4467C20.0854 15.4467 20.1763 15.4264 20.2558 15.3908C20.5456 15.2638 27.3864 12.154 27.3864 7.82465C27.3864 5.86329 25.6023 4.26758 23.4089 4.26758C21.9657 4.26758 20.6987 4.95863 19.9998 5.99522C19.301 4.95863 18.0339 4.26758 16.5907 4.26758C14.3976 4.26758 12.6133 5.86309 12.6133 7.82465C12.6133 12.1538 19.454 15.2637 19.7438 15.3908H19.7445Z" fill="#FFBC02"/>
<path d="M36.4761 27.1347H30.7147C30.6238 26.845 30.459 26.5757 30.2147 26.3572L25.8965 22.5007C26.0783 22.3889 26.2488 22.2618 26.4078 22.1196L27.2204 21.3929C27.4419 21.1947 27.4419 20.8746 27.2204 20.6765C26.9988 20.4783 26.6408 20.4783 26.4192 20.6765L25.6067 21.4031C25.1408 21.8198 24.5158 22.0535 23.8226 22.0535C23.3056 22.0535 22.817 21.9062 22.4022 21.6318L20.9136 20.6307C20.6863 20.4783 20.3738 20.4986 20.1692 20.6765L18.0613 22.5616C17.2715 23.268 15.9136 23.268 15.1238 22.5616L19.8056 18.3747C20.442 17.8055 21.3169 17.4803 22.2147 17.4803H24.8113C25.3113 17.4803 25.8113 17.582 26.2601 17.77C26.5272 17.8818 26.7715 18.019 26.9874 18.1816L28.1806 19.0759C28.9931 19.6805 30.0272 20.0159 31.0897 20.0159H36.4704C36.7829 20.0159 37.0386 19.7872 37.0386 19.5078C37.0386 19.2283 36.7829 18.9996 36.4704 18.9996H31.0897C30.2942 18.9996 29.5158 18.7507 28.9078 18.2933L27.709 17.399C27.4135 17.1805 27.0897 16.9976 26.7374 16.8502C26.1351 16.5962 25.4646 16.459 24.7999 16.459H22.2033C21.4306 16.459 20.6749 16.6419 20.0044 16.9722H19.9874H13.1863C12.7204 16.9722 12.2715 17.0535 11.8454 17.2212L8.94196 18.334C8.65787 18.4407 8.35673 18.4966 8.04422 18.4966H3.52131C3.2088 18.4966 2.95312 18.7252 2.95312 19.0047C2.95312 19.2842 3.2088 19.5128 3.52131 19.5128H8.04967C8.51556 19.5128 8.96443 19.4315 9.39058 19.2639L12.294 18.151C12.5781 18.0443 12.8792 17.9884 13.1917 17.9884H18.6237L14.3168 21.8402C14.1009 22.0332 13.9816 22.2873 13.9816 22.5617C13.9816 22.8361 14.1009 23.0902 14.3168 23.2833C14.9248 23.827 15.7316 24.1268 16.5896 24.1268C17.4475 24.1268 18.2487 23.827 18.8623 23.2833L20.6237 21.7081L21.7203 22.4448C22.3339 22.8513 23.0612 23.0698 23.8509 23.0698C24.1748 23.0698 24.493 23.0292 24.7998 22.953L29.4136 27.0739C29.5727 27.2162 29.6636 27.4093 29.6636 27.6227C29.658 27.826 29.567 28.0089 29.4136 28.1461C29.0841 28.4408 28.5443 28.4408 28.2148 28.1461L26.817 26.8961C26.5954 26.6979 26.2375 26.6979 26.0159 26.8961C25.7943 27.0943 25.7943 27.4144 26.0159 27.6126L27.4136 28.8626C27.6182 29.0455 27.6636 29.2538 27.6636 29.3961C27.6636 29.5993 27.5727 29.7873 27.4136 29.9296C27.0841 30.2243 26.5443 30.2243 26.2148 29.9296L24.817 28.6796C24.5954 28.4814 24.2375 28.4814 24.0159 28.6796C23.7943 28.8778 23.7943 29.1979 24.0159 29.3961L25.4136 30.6461C25.6182 30.829 25.6636 31.0373 25.6636 31.1796C25.6636 31.3219 25.6182 31.5302 25.4193 31.7131C25.0898 32.0079 24.55 32.0079 24.2204 31.7131L22.8227 30.4631C22.6011 30.2649 22.2431 30.2649 22.0216 30.4631C21.8 30.6613 21.8 30.9814 22.0216 31.1796L23.4193 32.4296C23.6239 32.6125 23.6693 32.8208 23.6693 32.9631C23.6693 33.1054 23.6239 33.3137 23.425 33.4966C23.0898 33.7964 22.5557 33.7964 22.2204 33.4966L20.55 31.9977C20.567 31.9062 20.5784 31.8097 20.5784 31.7131C20.5784 31.2406 20.3738 30.7934 19.9988 30.458C19.6181 30.1176 19.0954 29.9499 18.5727 29.955C18.584 29.4875 18.3909 29.02 17.9988 28.6643C17.6181 28.3238 17.0954 28.1562 16.5727 28.1612C16.584 27.6938 16.3909 27.2263 15.9988 26.8706C15.6068 26.52 15.0897 26.3472 14.5784 26.3523C14.5784 25.8899 14.3909 25.4326 13.9988 25.082C13.2488 24.4112 11.942 24.4112 11.192 25.082L9.79995 26.332C9.55563 26.5505 9.39086 26.8147 9.29995 27.1043H3.5214C3.2089 27.1043 2.95322 27.333 2.95322 27.6125C2.95322 27.8919 3.2089 28.1206 3.5214 28.1206H9.3054C9.40199 28.3899 9.5554 28.6338 9.78268 28.837C10.1577 29.1724 10.6577 29.3553 11.1861 29.3553H11.2088C11.2088 29.8178 11.3963 30.2751 11.7884 30.6257C12.1634 30.961 12.6634 31.144 13.1918 31.144H13.2145C13.2145 31.6064 13.402 32.0637 13.7941 32.4143C14.1805 32.7598 14.6861 32.9326 15.1975 32.9326H15.2202C15.2202 33.395 15.4077 33.8523 15.7998 34.2029C16.1748 34.5382 16.6748 34.7212 17.2032 34.7212C17.7317 34.7212 18.2316 34.5383 18.6066 34.2029L19.9987 32.9529C19.9987 32.9529 20.0044 32.9427 20.01 32.9376L21.4191 34.1978C21.8055 34.5382 22.3112 34.711 22.8225 34.711C23.3339 34.711 23.8396 34.5382 24.226 34.1978C24.6009 33.8624 24.8055 33.4153 24.8055 32.9427V32.9224H24.8226C25.3282 32.9224 25.8396 32.7496 26.226 32.4041C26.601 32.0687 26.8056 31.6216 26.8056 31.149V31.1287H26.8226C27.3283 31.1287 27.8397 30.9559 28.226 30.6103C28.601 30.275 28.8056 29.8278 28.8056 29.3553V29.3349H28.8226C29.3283 29.3349 29.8397 29.1622 30.226 28.8166C30.4476 28.6185 30.6067 28.3745 30.7033 28.0951H36.4931C36.8056 28.0951 37.0613 27.8664 37.0613 27.5869C37.0613 27.3075 36.8056 27.0788 36.4931 27.0788L36.4761 27.1347ZM10.5896 28.1509C10.4305 28.0087 10.3396 27.8156 10.3396 27.6174C10.3396 27.4192 10.4248 27.2262 10.5896 27.0839L11.9816 25.8339C12.1407 25.6916 12.3566 25.6103 12.5782 25.6103C12.7998 25.6103 13.0157 25.6916 13.1748 25.8339C13.5043 26.1286 13.5043 26.6113 13.1748 26.906L11.7828 28.156C11.4646 28.4406 10.9078 28.4406 10.5839 28.156L10.5896 28.1509ZM13.7885 29.9396C13.4703 30.2241 12.9135 30.2241 12.5896 29.9396C12.26 29.6448 12.26 29.1621 12.5896 28.8674L13.9816 27.6174C14.1464 27.47 14.3623 27.3938 14.5782 27.3938C14.7941 27.3938 15.01 27.4649 15.1748 27.6174C15.5043 27.9121 15.5043 28.3948 15.1748 28.6895L13.777 29.9396H13.7885ZM14.5896 31.7282C14.26 31.4335 14.26 30.9507 14.5896 30.656L15.9873 29.406C16.3055 29.1214 16.8623 29.1214 17.1862 29.406C17.5158 29.7007 17.5158 30.1834 17.1862 30.4782L15.7942 31.7282C15.4646 32.0229 14.9249 32.0229 14.5953 31.7282H14.5896ZM19.1805 32.2719L17.7885 33.5219C17.4703 33.8064 16.9135 33.8064 16.5896 33.5219C16.26 33.2272 16.26 32.7445 16.5896 32.4497L17.9816 31.1997C18.1407 31.0574 18.3566 30.9761 18.5782 30.9761C18.7998 30.9761 19.0157 31.0574 19.1748 31.1997C19.3339 31.342 19.4248 31.5351 19.4248 31.7332C19.4248 31.9314 19.3396 32.1245 19.1748 32.2668L19.1805 32.2719Z" fill="#FFBC02"/>
</g>
<defs>
<clipPath id="clip0_364_6372">
<rect width="40" height="40" fill="white"/>
</clipPath>
</defs>
</svg>
