<svg width="40" height="40" viewBox="0 0 40 40" fill="none" xmlns="http://www.w3.org/2000/svg">
<g clip-path="url(#clip0_364_6380)">
<path fill-rule="evenodd" clip-rule="evenodd" d="M25.2874 8.06167C20.3939 3.50623 12.2932 3.36151 7.19938 7.73647C2.1012 12.1166 1.94084 19.355 6.83574 23.9127C11.3088 28.077 18.4608 28.5609 23.5517 25.2631C25.8657 23.7641 27.5703 21.6097 28.3616 19.1349C29.613 15.2211 28.4553 11.0123 25.2863 8.06275L25.2874 8.06167ZM15.2874 11.1879C16.7419 10.4575 18.4863 10.1806 20.0899 10.5083C24.4619 11.4001 25.7576 16.3148 22.5857 19.135L22.9791 20.8309C23.0587 21.1497 22.7348 21.4089 22.4039 21.3276L20.1411 20.7673C18.7433 21.2691 17.347 21.2818 16.1141 20.9414C14.4749 20.4891 13.1099 19.403 12.4352 17.9993C11.9281 16.9449 11.8088 15.7178 12.2435 14.4575C12.7364 13.0309 13.8798 11.8965 15.2889 11.1889L15.2874 11.1879ZM14.5913 15.1349H15.624C15.7845 15.1349 15.9152 15.2518 15.9152 15.3954V16.3189C15.9152 16.4624 15.7845 16.5793 15.624 16.5793H14.5913C14.4308 16.5793 14.3002 16.4624 14.3002 16.3189V15.3954C14.3002 15.2518 14.4308 15.1349 14.5913 15.1349ZM17.6425 15.1349H18.6751C18.8356 15.1349 18.9663 15.2518 18.9663 15.3954V16.3189C18.9663 16.4624 18.8356 16.5793 18.6751 16.5793H17.6425C17.482 16.5793 17.3513 16.4624 17.3513 16.3189V15.3954C17.3513 15.2518 17.482 15.1349 17.6425 15.1349ZM20.6936 15.1349H21.7263C21.8868 15.1349 22.0174 15.2518 22.0174 15.3954V16.3189C22.0174 16.4624 21.8868 16.5793 21.7263 16.5793H20.6936C20.5331 16.5793 20.4024 16.4624 20.4024 16.3189V15.3954C20.4024 15.2518 20.5331 15.1349 20.6936 15.1349ZM9.53033 21.5844C9.19936 21.6669 8.87549 21.4065 8.95505 21.089L9.28602 19.6637C6.29595 16.9693 7.97351 12.2474 12.4096 12.0594C12.5119 12.0556 12.5729 12.1611 12.5104 12.2322C12.0005 12.8191 11.6028 13.4835 11.3528 14.2088C10.4181 16.9184 11.6866 19.7539 14.4167 21.1766C14.5133 21.2262 14.4877 21.357 14.3783 21.3748C13.4564 21.5298 12.4564 21.4624 11.4536 21.1067L9.5303 21.5831L9.53033 21.5844ZM27.4194 27.3122L25.2447 25.366L26.5501 24.1986L28.7248 26.1435L27.4194 27.3109V27.3122ZM27.6069 28.5647L30.124 26.3137L36.732 32.2233L34.2149 34.4743L27.6069 28.5634V28.5647ZM8.46619 9.19367C12.6607 5.44115 19.4618 5.44115 23.6578 9.19367C27.8524 12.9462 27.8524 19.0285 23.6578 22.781C19.4633 26.5335 12.6607 26.5335 8.46619 22.781C4.27164 19.0285 4.27164 12.9462 8.46619 9.19367Z" fill="#FFBC02"/>
</g>
<defs>
<clipPath id="clip0_364_6380">
<rect width="40" height="40" fill="white"/>
</clipPath>
</defs>
</svg>
