<svg width="40" height="40" viewBox="0 0 40 40" fill="none" xmlns="http://www.w3.org/2000/svg">
<g clip-path="url(#clip0_364_6387)">
<path d="M37.7784 15.8526C37.7784 15.6949 37.7153 15.5524 37.6126 15.4458C37.5083 15.3407 37.3703 15.2762 37.2133 15.2762C37.0356 15.2762 36.858 15.2882 36.6863 15.3152C36.5131 15.3407 36.3442 15.3782 36.1783 15.4248V11.6243C36.1783 11.0119 35.9361 10.4626 35.5442 10.0603C35.1537 9.65955 34.612 9.4119 34.016 9.4119C33.8237 9.4119 33.6373 9.43892 33.4611 9.48545C33.285 9.53348 33.1161 9.60553 32.9591 9.69559C32.8886 9.15372 32.6259 8.67495 32.2457 8.3297C31.8655 7.98598 31.3634 7.77734 30.8188 7.77734C30.2698 7.77734 29.7692 7.98598 29.389 8.3297C29.0088 8.67492 28.746 9.15372 28.6756 9.69559C28.5214 9.60553 28.3526 9.53348 28.1765 9.48545C27.9974 9.43892 27.8124 9.4119 27.6215 9.4119C27.0725 9.4119 26.5719 9.62054 26.1903 9.96576C25.8115 10.3095 25.5473 10.7898 25.4798 11.3286C25.3227 11.2401 25.1568 11.1695 24.9807 11.1215C24.8016 11.072 24.6166 11.0465 24.4243 11.0465C23.8283 11.048 23.2881 11.2941 22.8976 11.6964C22.5042 12.0942 22.262 12.648 22.262 13.2574V14.91C22.2253 14.928 22.1827 14.9355 22.146 14.9535C21.3827 15.3452 20.6135 16.2818 20.6135 16.2818C20.6135 16.2818 19.7297 15.3452 18.9664 14.9535C18.9297 14.9355 18.8871 14.928 18.8504 14.91V13.2574C18.8504 12.6495 18.6082 12.0957 18.2163 11.6964C17.8228 11.2941 17.2841 11.048 16.6866 11.0465C16.4943 11.0465 16.3094 11.0735 16.1332 11.1215C15.9541 11.168 15.7868 11.2401 15.6297 11.3286C15.5607 10.7913 15.2965 10.311 14.9178 9.96576C14.5361 9.62053 14.0355 9.4119 13.4865 9.4119C13.2956 9.4119 13.1092 9.43892 12.933 9.48545C12.7554 9.53348 12.5866 9.60553 12.4339 9.69559C12.362 9.15372 12.0992 8.67495 11.722 8.3297C11.3403 7.98598 10.8397 7.77734 10.2907 7.77734C9.74463 7.77734 9.24552 7.98598 8.86529 8.3297C8.48363 8.67492 8.22087 9.15372 8.1504 9.69559C7.99333 9.60553 7.82451 9.53348 7.64837 9.48545C7.47221 9.43892 7.28578 9.4119 7.09346 9.4119C6.49748 9.4119 5.95873 9.65806 5.56677 10.0603C5.17335 10.4626 4.93261 11.0119 4.93261 11.6243V15.4248C4.76673 15.3782 4.59791 15.3392 4.42614 15.3152C4.25292 15.2882 4.07676 15.2762 3.89769 15.2762C3.74062 15.2762 3.60263 15.3407 3.49987 15.4458C3.39564 15.5524 3.33545 15.6934 3.33398 15.8526V24.0267C3.33398 25.3805 3.56739 26.3021 3.90941 26.9926C4.24851 27.6816 4.69329 28.1408 5.10728 28.5701C5.48894 28.9634 5.84418 29.3326 6.10255 29.87C6.36238 30.4103 6.52679 31.1188 6.52679 32.198C6.52679 32.3571 6.58991 32.5012 6.69414 32.6062C6.7969 32.7098 6.93635 32.7758 7.09196 32.7758C7.2461 32.7758 7.38996 32.7113 7.49125 32.6062C7.59107 32.5027 7.65713 32.3586 7.65713 32.198C7.65713 30.8816 7.42372 29.9855 7.08903 29.3116C6.75434 28.6362 6.31834 28.1829 5.90733 27.7611C5.5183 27.3588 5.15719 26.9851 4.8915 26.4313C4.6258 25.8789 4.45846 25.1464 4.45846 24.0282V16.495C5.05005 16.6271 5.56678 16.9618 5.93671 17.4271C6.30665 17.8894 6.52683 18.4793 6.52683 19.1247V22.3923C6.52683 22.5529 6.59143 22.6955 6.69418 22.8006C6.79694 22.9042 6.9364 22.9687 7.092 22.9687C8.25905 22.9687 9.31746 23.4535 10.0823 24.2355C10.8471 25.0206 11.3227 26.0998 11.3227 27.2945C11.3227 27.4536 11.3873 27.5962 11.4871 27.7028C11.5899 27.8063 11.7323 27.8709 11.8864 27.8709C12.0405 27.8709 12.1815 27.8078 12.2857 27.7028C12.3855 27.5962 12.4501 27.4551 12.4516 27.2945C12.4501 25.8821 11.9231 24.5897 11.0614 23.6186C10.1982 22.6445 9.00183 21.9901 7.65571 21.846V19.1232C7.65571 18.4733 7.4957 17.8639 7.21824 17.3266C6.94226 16.7892 6.54003 16.3284 6.05856 15.9802L6.05709 13.8023L6.05856 11.6244C6.05856 11.3302 6.17306 11.066 6.36096 10.8754C6.54886 10.6848 6.80576 10.5662 7.09054 10.5662C7.37533 10.5662 7.63368 10.6848 7.82158 10.8754C8.00949 11.066 8.12545 11.3302 8.12545 11.6244V19.1218C8.12545 19.2809 8.18858 19.425 8.29134 19.5301C8.39263 19.6336 8.53355 19.6997 8.69062 19.6997C8.84476 19.6997 8.98715 19.6336 9.08845 19.5301C9.18974 19.4265 9.25286 19.2824 9.25286 19.1218L9.25726 14.5573V9.98977C9.25726 9.70008 9.37177 9.43591 9.5582 9.24229C9.74903 9.05167 10.0074 8.93309 10.2907 8.93309C10.577 8.93309 10.8353 9.05166 11.0232 9.24229C11.2111 9.43441 11.3256 9.69859 11.3256 9.98977V17.6386C10.9733 18.3981 10.7575 19.2326 10.7575 20.1272C10.7575 21.7273 11.3917 23.1757 12.4149 24.2202L16.0819 27.9697C15.731 28.3389 15.3728 28.7382 15.091 29.31C14.7563 29.9855 14.5244 30.8815 14.5244 32.1964C14.5244 32.3555 14.5875 32.4996 14.6902 32.6047C14.7901 32.7082 14.931 32.7743 15.0881 32.7743C15.2451 32.7743 15.3831 32.7097 15.4874 32.6047C15.5886 32.5011 15.6518 32.357 15.6532 32.1964C15.6532 31.1187 15.8177 30.4088 16.0775 29.8684C16.2918 29.4256 16.5751 29.1014 16.8805 28.7817L20.5577 32.5431L24.2321 28.7847C24.5374 29.1044 24.8222 29.4287 25.035 29.8714C25.2949 30.4118 25.4593 31.1202 25.4593 32.1994C25.4593 32.3585 25.5224 32.5026 25.6237 32.6077C25.7279 32.7113 25.8659 32.7773 26.023 32.7773C26.1771 32.7773 26.321 32.7128 26.4208 32.6077C26.5221 32.5041 26.5867 32.36 26.5867 32.1994C26.5867 30.8831 26.3547 29.987 26.0201 29.3131C25.7382 28.7412 25.38 28.342 25.0292 27.9727L28.6962 24.2233C29.7194 23.1771 30.3535 21.7287 30.3535 20.1303C30.3535 19.2357 30.1377 18.4012 29.7854 17.6431V9.98969C29.7854 9.7 29.9014 9.43584 30.0878 9.24221C30.2743 9.05159 30.5326 8.93301 30.8203 8.93301C31.1037 8.93301 31.362 9.05159 31.5499 9.24221C31.7364 9.43434 31.8523 9.69851 31.8523 9.98969V19.1233C31.8523 19.2824 31.9154 19.4265 32.0182 19.5315C32.1224 19.6351 32.2604 19.7011 32.416 19.7011C32.5716 19.7011 32.7126 19.6351 32.8153 19.5315C32.9166 19.428 32.9812 19.2839 32.9812 19.1233V11.6258C32.9812 11.3316 33.0986 11.0675 33.2836 10.8768C33.4715 10.6862 33.7299 10.5676 34.0161 10.5676C34.3009 10.5676 34.5578 10.6862 34.7486 10.8768C34.9351 11.0675 35.0496 11.3316 35.0496 11.6258V15.9817C34.5681 16.3284 34.1673 16.7892 33.8899 17.328C33.6124 17.8639 33.4524 18.4748 33.4539 19.1247L33.4524 20.4846V21.8475C32.1063 21.9916 30.9084 22.646 30.0467 23.6201C29.1835 24.5912 28.658 25.8836 28.6565 27.296C28.658 27.4551 28.7211 27.5977 28.8224 27.7043C28.9267 27.8078 29.0646 27.8724 29.2217 27.8724C29.3759 27.8724 29.5197 27.8093 29.621 27.7043C29.7208 27.5977 29.7869 27.4566 29.7869 27.296C29.7869 26.1012 30.261 25.0205 31.0273 24.237C31.7922 23.4535 32.852 22.9702 34.0176 22.9702C34.1747 22.9702 34.3126 22.9057 34.4169 22.8021C34.5182 22.697 34.5828 22.5544 34.5828 22.3938V19.1262C34.5828 18.4823 34.8029 17.891 35.1714 17.4286C35.5413 16.9618 36.0581 16.6271 36.6497 16.4965V24.0297C36.6497 25.1479 36.4823 25.8789 36.2166 26.4327C35.9509 26.9866 35.5898 27.3604 35.2008 27.7626C34.7897 28.1859 34.3538 28.6391 34.0191 29.3131C33.6844 29.9885 33.451 30.8846 33.451 32.1995C33.451 32.3586 33.5156 32.5027 33.6154 32.6077C33.7182 32.7113 33.8606 32.7773 34.0147 32.7773C34.1718 32.7773 34.3098 32.7128 34.414 32.6077C34.5153 32.5042 34.5799 32.3601 34.5799 32.1995C34.5799 31.1218 34.7443 30.4118 35.0041 29.8715C35.2625 29.3356 35.6192 28.9664 36.0008 28.5716C36.4163 28.1423 36.8596 27.6831 37.2016 26.9941C37.5407 26.3021 37.7771 25.3821 37.7771 24.0282L37.7756 19.9394V15.8521L37.7784 15.8526ZM15.9557 12.5114C16.1465 12.3208 16.4049 12.2022 16.6882 12.2022C16.973 12.2022 17.2313 12.3208 17.4178 12.5114C17.6057 12.7035 17.7231 12.9677 17.7231 13.2574V14.4927C17.3062 14.3936 16.8717 14.3366 16.4225 14.3366C16.1597 14.3366 15.9087 14.3816 15.6547 14.4161L15.6533 13.2589C15.6547 12.9692 15.7692 12.7035 15.9557 12.5114ZM12.7584 10.8768C12.9463 10.6862 13.2047 10.5676 13.488 10.5676C13.7757 10.5676 14.0341 10.6862 14.2205 10.8768C14.4084 11.0675 14.5259 11.3316 14.5259 11.6258V14.6938C13.7449 14.9805 13.0359 15.4188 12.4575 16.0026V15.3722L12.456 11.6258C12.4575 11.3331 12.572 11.0675 12.7584 10.8768ZM26.8919 10.8768C27.0784 10.6862 27.3382 10.5676 27.6244 10.5676C27.9078 10.5676 28.1661 10.6862 28.354 10.8768C28.5405 11.0675 28.6564 11.3316 28.6564 11.6258L28.655 15.3722V16.0026C28.0766 15.4188 27.3675 14.9805 26.5866 14.6938V11.6258C26.5881 11.3331 26.7055 11.0675 26.8919 10.8768ZM23.3908 13.2574C23.3908 12.9677 23.5083 12.7035 23.6962 12.5114C23.8826 12.3208 24.1424 12.2022 24.4257 12.2022C24.7091 12.2022 24.9674 12.3208 25.1582 12.5114C25.3447 12.7035 25.4592 12.9677 25.4592 13.2574V14.4146C25.2052 14.3801 24.9542 14.3351 24.69 14.3351C24.2437 14.3351 23.8077 14.3921 23.3908 14.4912L23.3908 13.2574Z" fill="#FFBC02"/>
</g>
<defs>
<clipPath id="clip0_364_6387">
<rect width="40" height="40" fill="white"/>
</clipPath>
</defs>
</svg>
