<svg width="24" height="25" viewBox="0 0 24 25" fill="none" xmlns="http://www.w3.org/2000/svg">
<g clip-path="url(#clip0_171_1442)">
<path fill-rule="evenodd" clip-rule="evenodd" d="M6.38458 2.5H15.8088V6.03875C15.8088 6.18648 15.9286 6.30635 16.0772 6.30635H19.616V9.05156H15.7894C14.8523 8.02252 13.5017 7.37673 11.9999 7.37673C10.4982 7.37673 9.14755 8.02252 8.21051 9.0524H4.38478V4.4999C4.38478 3.39996 5.28464 2.5 6.38458 2.5ZM11.9999 7.91283C9.46648 7.91283 7.4126 9.96669 7.4126 12.5001C7.4126 15.0336 9.46645 17.0874 11.9999 17.0874C14.5333 17.0874 16.5872 15.0336 16.5872 12.5001C16.5872 9.96669 14.5333 7.91283 11.9999 7.91283ZM2 9.58766H7.78517C7.21283 10.4141 6.87769 11.4178 6.87769 12.5001C6.87769 13.5824 7.21368 14.5852 7.78517 15.4126H2L4.45735 12.5001L2 9.58766ZM16.2148 9.58766H22L19.5427 12.5001L22 15.4126H16.2148C16.7872 14.5862 17.1231 13.5824 17.1231 12.5001C17.1231 11.4178 16.7872 10.415 16.2148 9.58766ZM9.60414 12.7601C9.49946 12.6554 9.49946 12.4858 9.60414 12.3811C9.70881 12.2764 9.87848 12.2764 9.98316 12.3811L11.2173 13.6152L14.0157 10.8169C14.1204 10.7122 14.29 10.7122 14.3947 10.8169C14.4994 10.9215 14.4994 11.0912 14.3947 11.1959L11.4073 14.1834C11.3026 14.288 11.1329 14.288 11.0282 14.1834L9.60414 12.7601ZM19.615 15.9477V20.4993C19.615 21.5993 18.7152 22.4992 17.6152 22.4992L6.38439 22.5C5.28445 22.5 4.38456 21.6001 4.38456 20.5002V15.9477H8.21029C9.14731 16.9767 10.498 17.6233 11.9997 17.6233C13.5014 17.6233 14.8521 16.9775 15.7891 15.9477L19.615 15.9477ZM16.3447 2.76862V5.77056H19.3475L16.3447 2.76862Z" fill="#FFBC02"/>
</g>
<defs>
<clipPath id="clip0_171_1442">
<rect width="24" height="24" fill="white" transform="translate(0 0.5)"/>
</clipPath>
</defs>
</svg>
