<svg width="24" height="25" viewBox="0 0 24 25" fill="none" xmlns="http://www.w3.org/2000/svg">
<g clip-path="url(#clip0_171_1448)">
<path d="M15.0839 8.01865H17.7881C17.7652 7.98228 17.7363 7.94833 17.7082 7.9152C17.6907 7.89419 17.6739 7.86994 17.6564 7.84812L14.6282 4.62901C14.6054 4.60477 14.5795 4.58618 14.5536 4.56517C14.5247 4.54092 14.4989 4.51344 14.4707 4.49243V7.36478C14.4707 7.72281 14.7461 8.01865 15.0839 8.01865Z" fill="#FFBC02"/>
<path d="M17.2955 10.8999C16.7858 10.8999 16.276 11.0122 15.7944 11.241C13.9295 12.1203 13.085 14.4478 13.9151 16.432C14.316 17.3905 15.0465 18.1268 15.9686 18.5043C16.8908 18.8818 17.8966 18.8542 18.8013 18.4283C19.1277 18.2764 19.4229 18.0751 19.6892 17.8383L19.6976 17.8294C20.1647 17.4092 20.5254 16.8709 20.7514 16.247C21.1067 15.2675 21.0808 14.199 20.6798 13.2381C20.2789 12.2796 19.5485 11.5401 18.6263 11.1658C18.1957 10.988 17.7452 10.8999 17.2955 10.8999ZM19.7994 13.6535C20.0977 14.3623 20.1144 15.1535 19.8511 15.8776C19.5879 16.6018 19.0751 17.1772 18.4078 17.49C18.0471 17.6605 17.6713 17.7397 17.2992 17.7397C16.2477 17.7397 15.2457 17.0948 14.793 16.0118C14.4948 15.303 14.478 14.5118 14.7413 13.7876C15.0045 13.0635 15.5173 12.4881 16.1846 12.1753C17.5648 11.5263 19.1861 12.1866 19.7994 13.6535Z" fill="#FFBC02"/>
<path d="M20.2915 21.8896C20.5121 21.7861 20.6841 21.5946 20.7701 21.3538C20.8591 21.1137 20.85 20.8486 20.7526 20.6143L19.736 18.1832C19.4842 18.3901 19.2118 18.5663 18.9143 18.7094C18.6419 18.8371 18.3612 18.9316 18.0781 18.9922L19.0863 21.3991C19.2833 21.8654 19.7992 22.1118 20.2915 21.8896Z" fill="#FFBC02"/>
<path d="M17.7866 19.0358C17.623 19.0568 17.4632 19.0722 17.2996 19.0722C16.8157 19.0722 16.3318 18.9776 15.8646 18.7861C14.8709 18.3788 14.0857 17.5875 13.6535 16.5531C12.7595 14.4171 13.671 11.9101 15.6788 10.9604C16.4237 10.6073 17.234 10.5103 18.0193 10.6687L18.0185 8.7759C18.0185 8.6175 17.9873 8.46556 17.9356 8.31928H15.0854C14.5901 8.31928 14.186 7.89014 14.186 7.36077V4.33657C14.046 4.28161 13.9023 4.24524 13.7562 4.24524H4.9165C4.23477 4.24524 3.68164 4.83523 3.68164 5.55936V21.1865C3.68164 21.9106 4.23477 22.4981 4.9165 22.4981H16.7836C17.4653 22.4981 18.0208 21.9106 18.0208 21.1865V19.5919L17.7866 19.0358ZM5.19505 6.04665H10.629C10.7089 6.04665 10.772 6.11373 10.772 6.19859C10.772 6.28345 10.7089 6.35053 10.629 6.35053L5.19505 6.35134C5.11516 6.35134 5.05201 6.28426 5.05201 6.1994C5.05125 6.11373 5.11744 6.04665 5.19505 6.04665ZM5.19505 8.43817H12.6255C12.7054 8.43817 12.7685 8.50525 12.7685 8.59011C12.7685 8.67497 12.7054 8.74205 12.6255 8.74205L5.19505 8.74286C5.11516 8.74286 5.05201 8.67578 5.05201 8.59092C5.05125 8.50525 5.11744 8.43817 5.19505 8.43817ZM5.19505 10.8297H14.6298C14.7097 10.8297 14.7728 10.8968 14.7728 10.9816C14.7728 11.0665 14.7097 11.1336 14.6298 11.1336L5.19505 11.1344C5.11516 11.1344 5.05201 11.0673 5.05201 10.9824C5.05125 10.9 5.11744 10.8297 5.19505 10.8297ZM5.19505 13.2212H12.9231C13.003 13.2212 13.0662 13.2883 13.0662 13.3731C13.0662 13.458 13.003 13.5251 12.9231 13.5251L5.19505 13.5259C5.11516 13.5259 5.05201 13.4588 5.05201 13.374C5.05125 13.2915 5.11744 13.2212 5.19505 13.2212ZM5.19505 15.6127H12.7572C12.8371 15.6127 12.9002 15.6798 12.9002 15.7647C12.9002 15.8495 12.8371 15.9166 12.7572 15.9166H5.19505C5.11516 15.9166 5.05201 15.8495 5.05201 15.7647C5.05125 15.6798 5.11744 15.6127 5.19505 15.6127ZM9.73204 20.7003H5.19505C5.11516 20.7003 5.05201 20.6332 5.05201 20.5484C5.05201 20.4635 5.11516 20.3964 5.19505 20.3964L9.73204 20.3956C9.81193 20.3956 9.87509 20.4627 9.87509 20.5476C9.87509 20.6332 9.81193 20.7003 9.73204 20.7003ZM13.9023 18.3088H5.19427C5.11438 18.3088 5.05123 18.2417 5.05123 18.1568C5.05123 18.072 5.11438 18.0049 5.19427 18.0049H13.9023C13.9822 18.0049 14.0453 18.072 14.0453 18.1568C14.0453 18.2417 13.9829 18.3088 13.9023 18.3088Z" fill="#FFBC02"/>
<path d="M15.0102 13.8998C14.7751 14.548 14.7926 15.2568 15.0589 15.8928C15.3252 16.5289 15.8068 17.0154 16.4193 17.2651C17.0295 17.5149 17.6968 17.4963 18.2956 17.2134C18.8944 16.9305 19.3524 16.419 19.5875 15.7684C19.8226 15.117 19.8051 14.4114 19.5388 13.7754C19.1318 12.8047 18.2355 12.2301 17.2957 12.2301C16.9633 12.2301 16.6254 12.3028 16.3044 12.4556C15.7033 12.7376 15.2453 13.2484 15.0102 13.8998Z" fill="#FFBC02"/>
<path d="M3.41109 21.3876C3.40272 21.3206 3.39131 21.2567 3.39131 21.1896V5.56006C3.39131 4.66862 4.07304 3.94126 4.91226 3.94126H13.7548C13.8378 3.94126 13.9207 3.95015 14.0044 3.9655L13.7609 3.70688C13.6491 3.59454 13.5289 3.50645 13.4026 3.44503C13.2367 3.36583 13.0617 3.323 12.8898 3.323L4.04931 3.32381C3.36759 3.32381 2.81445 3.91379 2.81445 4.63793V20.265C2.81521 20.7362 3.0474 21.1565 3.41109 21.3876Z" fill="#FFBC02"/>
</g>
<defs>
<clipPath id="clip0_171_1448">
<rect width="24" height="24" fill="white" transform="translate(0 0.5)"/>
</clipPath>
</defs>
</svg>
