<svg width="24" height="25" viewBox="0 0 24 25" fill="none" xmlns="http://www.w3.org/2000/svg">
<g clip-path="url(#clip0_171_1460)">
<path d="M6.41634 12.6617H11.6547C11.8065 12.492 11.9963 12.3902 12.2241 12.3563L14.8814 7.94522C14.9573 7.84343 15.0712 7.74163 15.1851 7.63985V5.53606H5.27761V18.4303H9.22544C9.14952 18.2945 9.0736 18.1927 9.03564 18.0231C8.95972 17.8195 8.95972 17.6159 8.95972 17.4123H6.41635C6.18859 17.4123 6.03675 17.2766 6.03675 17.073C6.03675 16.8694 6.18859 16.7336 6.41635 16.7336H9.14946C9.33926 16.4283 9.60498 16.2247 9.90866 16.055H6.41635C6.18859 16.055 6.03675 15.9193 6.03675 15.7157C6.03675 15.5121 6.18859 15.3764 6.41635 15.3764H11.1613C10.9335 15.2406 10.7817 15.071 10.7058 14.8334C10.7058 14.7995 10.6678 14.7317 10.6678 14.6977H6.41629C6.18853 14.6977 6.03669 14.562 6.03669 14.3584C6.03669 14.1548 6.18853 14.0191 6.41629 14.0191H10.7817L11.1993 13.3404H6.41624C6.18848 13.3404 6.03664 13.2047 6.03664 13.0011C6.03664 12.7975 6.18858 12.6617 6.41634 12.6617ZM7.55513 8.2506C7.55513 8.04701 7.70697 7.91128 7.93473 7.91128H9.07353V6.89332C9.07353 6.68973 9.22537 6.554 9.45313 6.554H10.9715C11.1993 6.554 11.3511 6.68973 11.3511 6.89332V7.91128H12.4899C12.7177 7.91128 12.8695 8.04701 12.8695 8.2506V9.60789C12.8695 9.81148 12.7177 9.94721 12.4899 9.94721H11.3511V10.9652C11.3511 11.1688 11.1993 11.3045 10.9715 11.3045H9.45313C9.22537 11.3045 9.07353 11.1688 9.07353 10.9652V9.94721H7.93473C7.70697 9.94721 7.55513 9.81148 7.55513 9.60789V8.2506ZM9.45313 9.26856H8.31433V8.58992H9.45313C9.68088 8.58992 9.83272 8.45419 9.83272 8.2506V7.23264H10.5919V8.2506C10.5919 8.45419 10.7438 8.58992 10.9715 8.58992H12.1103V9.26856H10.9715C10.7438 9.26856 10.5919 9.40429 10.5919 9.60789V10.6258H9.83272V9.60789C9.83272 9.40429 9.68088 9.26856 9.45313 9.26856ZM10.0984 19.1088L12.9455 20.466H4.1388C3.49349 20.466 3 19.991 3 19.4481V4.51796C3 3.94113 3.49347 3.5 4.1388 3.5H16.2859C16.9313 3.5 17.4247 3.94111 17.4247 4.51796V6.51997L15.9063 7.23253V5.1966C15.9063 4.99301 15.7545 4.85728 15.5267 4.85728H4.89799C4.67023 4.85728 4.51839 4.99301 4.51839 5.1966V18.7694C4.51839 18.973 4.67023 19.1088 4.89799 19.1088H10.0984ZM15.9441 19.1766C16.02 19.4481 16.02 19.7195 15.8682 19.9571C15.7164 20.1946 15.4886 20.3643 15.1849 20.4661C15.071 20.5 14.9572 20.5 14.8433 20.5C14.6535 20.5 14.4637 20.4661 14.3119 20.3643L10.2882 18.4302C9.71883 18.1587 9.52905 17.5479 9.83272 17.0389C10.1364 16.53 10.8197 16.3603 11.3891 16.6318L12.376 17.1068L12.9075 16.2246L14.9193 17.1747L14.3879 18.0909L15.3748 18.5659C15.6406 18.7016 15.8302 18.9052 15.9441 19.1766ZM21.9419 4.00893L20.4615 6.45204C20.7651 6.75742 20.8411 7.23249 20.6133 7.60573L20.4615 7.91111C20.5753 7.97897 20.6513 8.08077 20.6513 8.18256L20.917 10.6257C20.917 10.6935 20.917 10.7614 20.879 10.8293L17.9941 15.6136C18.07 15.6476 18.1459 15.7154 18.1839 15.8172C18.2218 15.919 18.1839 15.9869 18.1459 16.0887L17.4247 17.2763C17.3488 17.3781 17.2349 17.446 17.083 17.446C17.0071 17.446 16.9692 17.446 16.8932 17.412L11.541 14.8332C11.465 14.7993 11.3891 14.7314 11.3512 14.6296C11.3132 14.5278 11.3512 14.46 11.3891 14.3582L12.1104 13.1705C12.2243 13.0009 12.452 12.933 12.6418 13.0348L13.1733 12.1526L13.5149 12.2883L15.1851 13.1027C15.2231 13.1366 15.299 13.1366 15.3749 13.1366C15.5267 13.1366 15.6406 13.0687 15.7165 12.9669C15.8304 12.7973 15.7545 12.5937 15.5647 12.4919L13.8945 11.6775L13.5528 11.5418L13.9324 10.931L14.2741 11.1007L15.9443 11.915C16.0202 11.949 16.0582 11.949 16.1341 11.949C16.2859 11.949 16.3998 11.8811 16.4757 11.7793C16.5896 11.6097 16.5137 11.406 16.3239 11.3043L14.6536 10.5238L14.312 10.3542L14.6536 9.77732L14.9953 9.91305L16.6655 10.7274C16.7414 10.7613 16.7794 10.7613 16.8553 10.7613C17.0071 10.7613 17.121 10.6935 17.1969 10.5917C17.3108 10.422 17.2349 10.2184 17.0451 10.1166L15.3749 9.30227L15.0332 9.16654L15.4128 8.55576L15.7545 8.72542L17.4247 9.53979C17.5006 9.57373 17.5386 9.57373 17.6145 9.57373C17.7663 9.57373 17.8802 9.50586 17.9561 9.40407C18.07 9.2344 17.9941 9.0308 17.8043 8.92902L16.134 8.14857L15.9442 8.04677L18.1839 6.99486C18.2978 6.927 18.4116 6.927 18.5255 6.99486L18.7153 6.68949C18.9431 6.31622 19.4366 6.11265 19.8921 6.18049L21.3725 3.73738C21.4864 3.56772 21.7142 3.49985 21.904 3.60166C21.9799 3.63559 22.0558 3.83928 21.9419 4.00893Z" fill="#FFBC02"/>
</g>
<defs>
<clipPath id="clip0_171_1460">
<rect width="24" height="24" fill="white" transform="translate(0 0.5)"/>
</clipPath>
</defs>
</svg>
