<svg width="24" height="25" viewBox="0 0 24 25" fill="none" xmlns="http://www.w3.org/2000/svg">
<g clip-path="url(#clip0_171_1466)">
<path d="M10.6723 8.40964H6.56332C6.32244 8.40964 6.12695 8.23481 6.12695 8.01939C6.12695 7.80398 6.32244 7.62915 6.56332 7.62915H10.6723C10.9132 7.62915 11.1087 7.80398 11.1087 8.01939C11.1087 8.23481 10.9132 8.40964 10.6723 8.40964Z" fill="#FFBC02"/>
<path d="M8.50945 8.01941H7.63672V19.8891H8.50945V8.01941Z" fill="#FFBC02"/>
<path d="M17.9102 20.4744H6.5647C6.20317 20.4744 5.91016 20.2124 5.91016 19.8891C5.91016 19.5658 6.20317 19.3037 6.5647 19.3037H17.9102C18.2717 19.3037 18.5647 19.5658 18.5647 19.8891C18.5647 20.2124 18.2717 20.4744 17.9102 20.4744Z" fill="#FFBC02"/>
<path d="M12.0006 4.76186C12.4023 4.76186 12.7278 4.4707 12.7278 4.11152C12.7278 3.75235 12.4023 3.46118 12.0006 3.46118C11.599 3.46118 11.2734 3.75235 11.2734 4.11152C11.2734 4.4707 11.599 4.76186 12.0006 4.76186Z" fill="#FFBC02"/>
<path d="M13.6002 5.55775C13.9522 5.55775 14.2375 5.30257 14.2375 4.9878C14.2375 4.67302 13.9522 4.41785 13.6002 4.41785C13.2482 4.41785 12.9629 4.67302 12.9629 4.9878C12.9629 5.30257 13.2482 5.55775 13.6002 5.55775Z" fill="#FFBC02"/>
<path d="M13.7588 3.81493C13.9773 3.81493 14.1544 3.65655 14.1544 3.46118C14.1544 3.2658 13.9773 3.10742 13.7588 3.10742C13.5404 3.10742 13.3633 3.2658 13.3633 3.46118C13.3633 3.65655 13.5404 3.81493 13.7588 3.81493Z" fill="#FFBC02"/>
<path d="M12.7276 7.65038C12.9461 7.65038 13.1232 7.492 13.1232 7.29663C13.1232 7.10125 12.9461 6.94287 12.7276 6.94287C12.5091 6.94287 12.332 7.10125 12.332 7.29663C12.332 7.492 12.5091 7.65038 12.7276 7.65038Z" fill="#FFBC02"/>
<path d="M13.7588 8.71154C13.9773 8.71154 14.1544 8.55316 14.1544 8.35778C14.1544 8.16241 13.9773 8.00403 13.7588 8.00403C13.5404 8.00403 13.3633 8.16241 13.3633 8.35778C13.3633 8.55316 13.5404 8.71154 13.7588 8.71154Z" fill="#FFBC02"/>
<path d="M12.2167 9.41613C12.5435 9.41613 12.8084 9.17921 12.8084 8.88696C12.8084 8.59471 12.5435 8.35779 12.2167 8.35779C11.8899 8.35779 11.625 8.59471 11.625 8.88696C11.625 9.17921 11.8899 9.41613 12.2167 9.41613Z" fill="#FFBC02"/>
<path d="M16.9508 6.5488C17.1916 6.5488 17.3871 6.37397 17.3871 6.15855C17.3871 5.94314 17.1916 5.76831 16.9508 5.76831H9.2723C9.03143 5.76831 8.83594 5.94314 8.83594 6.15855C8.83594 6.37397 9.03143 6.5488 9.2723 6.5488H10.2921C10.2921 6.5488 10.2921 11.0366 10.2921 11.7927C10.2921 12.5488 9.79114 13.1474 9.60634 13.4477C9.29259 13.958 9.11368 14.5441 9.11368 15.1675C9.11368 17.142 10.9036 18.7428 13.1114 18.7428C15.3192 18.7428 17.1094 17.1422 17.1094 15.1677C17.1094 14.5437 16.9296 13.9578 16.6146 13.4479C16.445 13.1732 15.9949 12.4514 15.9949 11.7929C15.9949 11.1344 15.9949 6.54899 15.9949 6.54899L16.9508 6.5488ZM11.2359 6.5488H15.0814V9.91426C15.0814 9.91426 14.5632 10.8495 13.3087 10.5974C11.9653 10.3273 11.2359 11.7193 11.2359 11.7193V6.5488Z" fill="#FFBC02"/>
</g>
<defs>
<clipPath id="clip0_171_1466">
<rect width="24" height="24" fill="white" transform="translate(0 0.5)"/>
</clipPath>
</defs>
</svg>
