<svg width="24" height="25" viewBox="0 0 24 25" fill="none" xmlns="http://www.w3.org/2000/svg">
<g clip-path="url(#clip0_171_1484)">
<path fill-rule="evenodd" clip-rule="evenodd" d="M11.1005 18.1156H7.73834C7.54998 18.1156 7.39743 17.9746 7.39743 17.8004V15.9097C7.39743 14.6917 8.46617 13.7037 9.7839 13.7037H10.5936L10.937 14.1701C11.1126 14.4088 11.4577 14.4813 11.7279 14.3371L11.762 14.319C11.2626 15.1107 10.9762 16.0309 10.9762 17.0132C10.9762 17.3914 11.0188 17.7601 11.0998 18.1162L11.1005 18.1156ZM12.084 13.8645C12.09 13.8118 12.0883 13.7574 12.0789 13.7038H12.2161C12.171 13.7566 12.1275 13.8102 12.0849 13.8645H12.084ZM12.5059 13.3887H12.3482L14.5565 10.395L14.2497 12.1888C13.5883 12.485 12.9977 12.8939 12.505 13.3886L12.5059 13.3887ZM11.219 13.9922L7.37441 8.77993C7.34458 8.73897 7.32498 8.69249 7.31816 8.64285L7.26021 8.23477C7.19714 7.78492 7.34628 7.33193 7.6693 6.99159C7.90794 6.74028 8.22413 6.56853 8.57015 6.49528C8.94088 7.48083 9.9551 8.18907 11.1467 8.18907C12.3381 8.18907 13.3523 7.48083 13.7232 6.49528C14.0692 6.56854 14.3854 6.74028 14.624 6.99159C14.9479 7.33193 15.097 7.78571 15.0331 8.23477L14.9752 8.64285C14.9683 8.6917 14.9487 8.73897 14.9189 8.77993L11.9878 12.7528L11.5234 11.8618L13.2833 8.48366C13.3651 8.32689 13.2935 8.13861 13.1239 8.06298C12.9543 7.98735 12.7506 8.05353 12.6688 8.2103L11.145 11.1355L9.62109 8.2103C9.53927 8.05353 9.33557 7.98734 9.16598 8.06298C8.99638 8.13861 8.92478 8.3269 9.0066 8.48366L11.7142 13.681C11.7824 13.8125 11.7296 13.9709 11.5932 14.0442L11.5557 14.0639C11.4398 14.1261 11.2924 14.0946 11.2165 13.9922L11.219 13.9922ZM9.95081 13.3887H9.78376C9.24427 13.3887 8.7423 13.5337 8.31872 13.7826L7.74003 10.3919L9.95087 13.3879L9.95081 13.3887ZM4.49975 13.7038C5.81652 13.7038 6.88623 14.6925 6.88623 15.9098C6.88623 17.1271 5.81663 18.1158 4.49975 18.1158C3.18287 18.1158 2.11328 17.1271 2.11328 15.9098C2.11328 14.6925 3.18287 13.7038 4.49975 13.7038ZM11.1475 3.46228C12.4643 3.46228 13.534 4.45098 13.534 5.66826C13.534 6.88555 12.4644 7.87425 11.1475 7.87425C9.83066 7.87425 8.76106 6.88555 8.76106 5.66826C8.76106 4.45098 9.83066 3.46228 11.1475 3.46228ZM16.7725 12.2858C19.5944 12.2858 21.8862 14.4043 21.8862 17.0128C21.8862 19.6213 19.5944 21.7398 16.7725 21.7398C13.9505 21.7398 11.6587 19.6213 11.6587 17.0128C11.6587 14.4043 13.9505 12.2858 16.7725 12.2858ZM13.942 17.6428C14.0051 17.8004 14.0826 17.9595 14.173 18.1187C14.5991 18.916 15.6798 19.7243 16.59 20.2569C16.7016 20.3223 16.8431 20.3223 16.9548 20.2569C17.865 19.7236 18.9474 18.9153 19.3735 18.1157C19.463 17.9573 19.5397 17.7998 19.6028 17.643H20.352C20.5403 17.643 20.6929 17.502 20.6929 17.3278C20.6929 17.1537 20.5403 17.0127 20.352 17.0127H19.7886C19.925 16.2714 19.7503 15.6159 19.3045 15.2244C18.6883 14.6831 17.5275 14.5886 16.7732 15.3969C16.0181 14.5886 14.8581 14.6831 14.2418 15.2244C13.7961 15.6159 13.6213 16.2714 13.7577 17.0127H13.1935C13.0052 17.0127 12.8526 17.1537 12.8526 17.3278C12.8526 17.502 13.0052 17.643 13.1935 17.643H13.9427L13.942 17.6428ZM19.0983 17.0126H18.8452L18.2614 16.0688C18.2025 15.9743 18.0952 15.9136 17.9775 15.9104C17.8591 15.9065 17.7474 15.9601 17.6818 16.0507L17.1014 16.8558H16.602C16.4877 16.8558 16.3812 16.9086 16.3181 16.9961L16.0343 17.3892L15.5639 15.975C15.5213 15.8458 15.3943 15.7568 15.2485 15.7529C15.1028 15.7489 14.9707 15.8309 14.9187 15.9569L14.49 17.0126H14.4457C14.3861 16.7621 14.3699 16.5234 14.3997 16.3083C14.4346 16.0554 14.5335 15.8364 14.7099 15.682C15.1522 15.2936 16.0276 15.3274 16.4699 16.1042C16.5287 16.2082 16.6446 16.2728 16.7716 16.2728C16.8986 16.2728 17.0145 16.2082 17.0733 16.1042C17.5156 15.3274 18.3909 15.2936 18.8332 15.682C19.0582 15.8789 19.1579 16.1799 19.1579 16.5249C19.1579 16.6801 19.1375 16.844 19.0974 17.0134L19.0983 17.0126ZM14.6792 17.6428H14.727C14.8693 17.6428 14.9963 17.5617 15.0466 17.438L15.2068 17.0425L15.5946 18.2077C15.6338 18.3243 15.7412 18.4094 15.8715 18.4267C16.0019 18.4441 16.1315 18.3913 16.2039 18.2896L16.7843 17.4845H17.2838C17.398 17.4845 17.5045 17.4317 17.5676 17.3443L17.9434 16.8235L18.3517 17.4837C18.4122 17.5822 18.5256 17.6428 18.6474 17.6428H18.8656C18.8349 17.7043 18.8025 17.7657 18.7676 17.8272C18.7659 17.8296 18.765 17.8327 18.7633 17.8351C18.4131 18.4945 17.5437 19.146 16.7724 19.6155C16.002 19.146 15.1327 18.4945 14.7815 17.8351C14.7798 17.8327 14.779 17.8296 14.7773 17.8272C14.7423 17.7657 14.7091 17.7043 14.6792 17.6428Z" fill="#FFBC02"/>
</g>
<defs>
<clipPath id="clip0_171_1484">
<rect width="24" height="24" fill="white" transform="translate(0 0.5)"/>
</clipPath>
</defs>
</svg>
