<svg width="24" height="25" viewBox="0 0 24 25" fill="none" xmlns="http://www.w3.org/2000/svg">
<g clip-path="url(#clip0_171_1490)">
<path fill-rule="evenodd" clip-rule="evenodd" d="M11.7437 6.3454L2.64578 9.7336C2.07901 9.94454 2.07901 10.6805 2.64578 10.8914L11.7437 14.2796C11.9082 14.3406 12.0923 14.3406 12.2568 14.2796L19.5002 11.582V16.25L19.0298 17.9735C18.9224 18.368 19.248 18.75 19.692 18.75H20.6721C21.1162 18.75 21.4417 18.368 21.3344 17.9735L20.8639 16.25V11.0742L21.3548 10.8914C21.9216 10.6805 21.9216 9.94453 21.3548 9.73359L12.2569 6.34539C12.0924 6.28445 11.9082 6.28446 11.7437 6.3454ZM11.2307 15.4376L5.86383 13.4392V16.1126C5.86383 16.3501 6.00957 16.5657 6.2448 16.6641C7.23343 17.0774 9.94625 18.1251 12.0002 18.1251C14.0542 18.1251 16.7671 17.0774 17.7556 16.6641C17.9909 16.5657 18.1366 16.3501 18.1366 16.1126V13.4392L12.7698 15.4376C12.2763 15.6212 11.7241 15.6212 11.2307 15.4376Z" fill="#FFBC02"/>
</g>
<defs>
<clipPath id="clip0_171_1490">
<rect width="24" height="24" fill="white" transform="translate(0 0.5)"/>
</clipPath>
</defs>
</svg>
