<svg width="24" height="25" viewBox="0 0 24 25" fill="none" xmlns="http://www.w3.org/2000/svg">
<g clip-path="url(#clip0_171_1496)">
<path d="M9.58203 12.911C9.58203 14.2861 10.6661 15.4017 11.999 15.4017C13.332 15.4017 14.4161 14.2862 14.4161 12.911C14.4161 11.5358 13.332 10.4238 11.999 10.4238C10.6661 10.4238 9.58203 11.5394 9.58203 12.911Z" fill="#FFBC02"/>
<path d="M17.9862 20.0463C17.9862 17.8713 16.2646 16.1034 14.1545 16.1034H9.84538C7.73515 16.1034 6.01367 17.8714 6.01367 20.0463V22.2073H17.9864L17.9862 20.0463Z" fill="#FFBC02"/>
<path d="M13.4609 4.00231C13.4609 3.17267 12.8072 2.5 12.001 2.5C11.1947 2.5 10.541 3.17267 10.541 4.00231C10.541 4.71357 11.0225 5.30642 11.6677 5.46165C11.666 5.47568 11.6592 5.48796 11.6592 5.50287V8.62675C11.6592 8.82057 11.8118 8.97756 12.0001 8.97756C12.1885 8.97756 12.341 8.82057 12.341 8.62675V5.50287C12.341 5.48796 12.3342 5.47568 12.3325 5.46165C12.9777 5.30642 13.4592 4.71357 13.4592 4.00231H13.4609Z" fill="#FFBC02"/>
<path d="M14.3769 9.41709C14.2534 9.56268 14.2679 9.78456 14.4093 9.91172C14.4741 9.9696 14.5542 9.99854 14.6335 9.99854C14.7281 9.99854 14.8227 9.9582 14.89 9.87839L16.8886 7.52279C16.898 7.51139 16.9014 7.49736 16.9091 7.48596C17.4946 7.80607 18.2369 7.68592 18.692 7.15007C19.2221 6.52565 19.1599 5.57584 18.5531 5.03034C17.9463 4.48484 17.0233 4.54887 16.4932 5.17329C16.038 5.70914 16.0227 6.48178 16.4088 7.03519C16.3985 7.04483 16.3849 7.0501 16.3755 7.0615L14.3769 9.41709Z" fill="#FFBC02"/>
<path d="M19.0659 12.1094C19.302 12.747 19.9378 13.1592 20.6239 13.0636C21.4233 12.9522 21.9824 12.1954 21.8742 11.3728C21.7659 10.5501 21.0304 9.9748 20.231 10.0862C19.5466 10.1818 19.0412 10.7527 18.9773 11.4306C18.9637 11.4306 18.9509 11.4263 18.9364 11.428L15.9244 11.8481C15.7378 11.8744 15.6065 12.0507 15.6321 12.2427C15.6551 12.419 15.8017 12.5462 15.9696 12.5462C15.9849 12.5462 16.0003 12.5453 16.0156 12.5427L19.0276 12.1226C19.0413 12.1208 19.0523 12.1121 19.066 12.1086L19.0659 12.1094Z" fill="#FFBC02"/>
<path d="M7.50503 5.17389C6.97492 4.54947 6.05277 4.48456 5.44509 5.03094C4.83741 5.57644 4.77521 6.52535 5.30617 7.15066C5.76128 7.68651 6.50277 7.80667 7.08913 7.48656C7.0968 7.49883 7.10021 7.51287 7.10958 7.52339L9.10817 9.87899C9.1755 9.9588 9.27011 9.99914 9.36471 9.99914C9.44397 9.99914 9.52409 9.97108 9.58885 9.91232C9.73033 9.78515 9.74481 9.56326 9.62124 9.41769L7.62265 7.06209C7.61327 7.05069 7.60049 7.04543 7.58941 7.03578C7.97633 6.4815 7.96014 5.70976 7.50503 5.17389Z" fill="#FFBC02"/>
<path d="M3.37693 13.0635C4.06216 13.1591 4.69796 12.7469 4.93488 12.1093C4.94852 12.1128 4.95875 12.1207 4.97323 12.1233L7.98523 12.5434C8.00058 12.5452 8.01592 12.5469 8.03126 12.5469C8.19916 12.5469 8.34575 12.4189 8.36876 12.2435C8.39433 12.0514 8.26308 11.8751 8.07644 11.8488L5.06444 11.4287C5.05081 11.427 5.03717 11.4314 5.02353 11.4314C4.96047 10.7526 4.45421 10.1825 3.76984 10.0869C2.9704 9.97552 2.23489 10.5517 2.12667 11.3735C2.01843 12.1961 2.57837 12.953 3.37696 13.0643L3.37693 13.0635Z" fill="#FFBC02"/>
</g>
<defs>
<clipPath id="clip0_171_1496">
<rect width="24" height="24" fill="white" transform="translate(0 0.5)"/>
</clipPath>
</defs>
</svg>
