<svg width="24" height="25" viewBox="0 0 24 25" fill="none" xmlns="http://www.w3.org/2000/svg">
<g clip-path="url(#clip0_171_1509)">
<path d="M9.34932 1.3999C8.81176 1.3999 8.36758 1.80967 8.36758 2.30645V3.539C8.36758 4.03579 8.81176 4.44555 9.34932 4.44555H14.6495C15.1871 4.44555 15.6336 4.03579 15.6336 3.539V2.30645C15.6336 1.80967 15.1871 1.3999 14.6495 1.3999H9.34932ZM4.98511 2.54931C4.02411 2.54931 3.24023 3.27667 3.24023 4.16476V19.8853C3.24023 20.7734 4.02411 21.5 4.98511 21.5H19.0137C19.9747 21.5 20.761 20.7734 20.761 19.8853V4.16476C20.761 3.27666 19.9747 2.54931 19.0137 2.54931H16.7259V3.539C16.7259 4.59412 15.787 5.45493 14.6495 5.45493H9.34932C8.21186 5.45493 7.27613 4.59116 7.27613 3.539V2.54931H4.98511ZM9.77785 7.32126C9.88467 7.32069 9.98818 7.35924 10.0643 7.42847C10.1404 7.49774 10.1836 7.59201 10.1847 7.69067C10.1858 7.78934 10.1445 7.88438 10.07 7.95504L8.08993 9.81262C8.05232 9.84794 8.00749 9.87599 7.95803 9.89514C7.90858 9.91429 7.8555 9.92415 7.80188 9.92415C7.74826 9.92415 7.69518 9.91429 7.64573 9.89514C7.59627 9.87599 7.55144 9.84794 7.51383 9.81262L6.43739 8.79814C6.36273 8.72786 6.32113 8.63316 6.32167 8.53468C6.3222 8.43619 6.36481 8.34189 6.44022 8.2723C6.47793 8.23756 6.5227 8.21005 6.57194 8.19135C6.62119 8.17265 6.67396 8.16313 6.7272 8.16333C6.78044 8.16354 6.83312 8.17347 6.8822 8.19255C6.93127 8.21163 6.97579 8.23949 7.01318 8.27452L7.80316 9.01916L9.49438 7.43143C9.56924 7.36184 9.67167 7.32224 9.77785 7.32126ZM12.0515 8.24969H17.2775C17.3843 8.25008 17.4865 8.28949 17.5619 8.35932C17.6373 8.42915 17.6798 8.52372 17.68 8.62237C17.6796 8.7209 17.637 8.81528 17.5616 8.88496C17.4862 8.95463 17.3841 8.99394 17.2775 8.99433H12.0515C11.9449 8.99394 11.8428 8.95463 11.7674 8.88496C11.692 8.81529 11.6494 8.7209 11.649 8.62237C11.6492 8.52371 11.6917 8.42914 11.7671 8.35931C11.8425 8.28948 11.9447 8.25007 12.0515 8.24969ZM9.77785 11.7395C9.88478 11.7391 9.98831 11.7779 10.0643 11.8474C10.1401 11.9167 10.1833 12.0108 10.1843 12.1093C10.1854 12.2078 10.1443 12.3027 10.07 12.3733L8.08993 14.2316C8.05232 14.2669 8.00749 14.295 7.95803 14.3141C7.90858 14.3333 7.8555 14.3431 7.80188 14.3431C7.74826 14.3431 7.69518 14.3333 7.64573 14.3141C7.59627 14.295 7.55144 14.2669 7.51383 14.2316L6.43739 13.22C6.39982 13.1851 6.37009 13.1438 6.34989 13.0982C6.32969 13.0527 6.31943 13.0039 6.31969 12.9547C6.31996 12.9055 6.33074 12.8569 6.35143 12.8115C6.37211 12.7662 6.40229 12.7251 6.44022 12.6905C6.47799 12.6558 6.5228 12.6284 6.57208 12.6098C6.62135 12.5911 6.67413 12.5817 6.72738 12.582C6.78062 12.5822 6.83328 12.5922 6.88233 12.6114C6.93137 12.6305 6.97584 12.6585 7.01318 12.6935L7.80316 13.4374L9.49438 11.8497C9.56924 11.7801 9.67167 11.7405 9.77785 11.7395ZM12.0515 12.6686H17.2775C17.3841 12.669 17.4862 12.7083 17.5616 12.778C17.637 12.8477 17.6796 12.9421 17.68 13.0406C17.6804 13.1396 17.6382 13.2348 17.5627 13.3051C17.4873 13.3754 17.3847 13.4151 17.2775 13.4155H12.0515C11.9984 13.4153 11.9459 13.4054 11.897 13.3865C11.848 13.3675 11.8036 13.3399 11.7662 13.3051C11.7289 13.2703 11.6993 13.229 11.6792 13.1836C11.6591 13.1382 11.6488 13.0896 11.649 13.0406C11.6494 12.9421 11.692 12.8477 11.7674 12.778C11.8428 12.7083 11.9449 12.669 12.0515 12.6686ZM9.77785 16.1585C9.88467 16.1579 9.98818 16.1964 10.0643 16.2657C10.1025 16.3 10.1329 16.341 10.1538 16.3862C10.1747 16.4315 10.1858 16.4801 10.1863 16.5293C10.1868 16.5785 10.1768 16.6273 10.1569 16.673C10.1369 16.7186 10.1074 16.7601 10.07 16.7952L8.08993 18.6506C8.05232 18.6859 8.00749 18.7139 7.95803 18.7331C7.90858 18.7522 7.8555 18.7621 7.80188 18.7621C7.74826 18.7621 7.69518 18.7522 7.64573 18.7331C7.59627 18.7139 7.55144 18.6859 7.51383 18.6506L6.43739 17.6383C6.39994 17.6034 6.37031 17.5621 6.35018 17.5166C6.33005 17.4711 6.31983 17.4224 6.32009 17.3733C6.32036 17.3242 6.3311 17.2756 6.35172 17.2304C6.37233 17.1851 6.40241 17.144 6.44022 17.1095C6.47813 17.0749 6.52306 17.0477 6.57242 17.0292C6.62178 17.0107 6.6746 17.0015 6.72785 17.002C6.78109 17.0024 6.83371 17.0126 6.88268 17.032C6.93164 17.0513 6.97599 17.0794 7.01318 17.1146L7.80316 17.8563L9.49438 16.2686C9.56924 16.199 9.67167 16.1594 9.77785 16.1585ZM12.0515 17.0876H17.2775C17.3841 17.088 17.4862 17.1273 17.5616 17.197C17.637 17.2666 17.6796 17.361 17.68 17.4596C17.6804 17.5586 17.6382 17.6537 17.5627 17.724C17.4873 17.7943 17.3847 17.834 17.2775 17.8344H12.0515C11.9984 17.8342 11.9459 17.8244 11.897 17.8055C11.848 17.7865 11.8036 17.7588 11.7662 17.724C11.7289 17.6892 11.6993 17.648 11.6792 17.6026C11.6591 17.5572 11.6488 17.5086 11.649 17.4596C11.6494 17.361 11.692 17.2666 11.7674 17.197C11.8428 17.1273 11.9449 17.088 12.0515 17.0876Z" fill="#FFBC02"/>
</g>
<defs>
<clipPath id="clip0_171_1509">
<rect width="24" height="24" fill="white" transform="translate(0 0.5)"/>
</clipPath>
</defs>
</svg>
