<svg width="24" height="25" viewBox="0 0 24 25" fill="none" xmlns="http://www.w3.org/2000/svg">
<g clip-path="url(#clip0_171_1516)">
<path fill-rule="evenodd" clip-rule="evenodd" d="M4.21857 11.3949C4.21857 10.043 5.31442 8.94714 6.66606 8.94714C8.01771 8.94714 9.11355 10.0431 9.11355 11.3949C9.11355 12.7467 8.01771 13.8427 6.66606 13.8427C5.31442 13.8427 4.21857 12.7467 4.21857 11.3949ZM6.88465 18.7959L7.93261 14.8838H9.22603C8.88919 14.5565 8.49054 14.2927 8.04837 14.1117C7.63405 14.3232 7.16403 14.4425 6.66704 14.4425C6.17004 14.4425 5.7009 14.3232 5.28572 14.1117C3.9453 14.6583 3 15.9728 3 17.5101V20.6474H6.38847L6.72444 19.3956H5.11593C4.95055 19.3956 4.8165 19.2615 4.8165 19.0961V17.3769C4.8165 17.2115 4.95054 17.0757 5.11593 17.0757C5.28132 17.0757 5.41536 17.2106 5.41536 17.3769V18.7958L6.88465 18.7959ZM8.39305 15.4846L7.00999 20.6475H13.2272L14.6103 15.4846H8.39305ZM15.6495 15.5429C15.6495 16.7259 16.6087 17.6852 17.7916 17.6852C18.9745 17.6852 19.9336 16.7259 19.9336 15.5429C19.9336 14.3599 18.9745 13.4024 17.7916 13.4024C16.6087 13.4024 15.6495 14.3617 15.6495 15.5429ZM19.0895 17.9586C18.7039 18.1666 18.2617 18.285 17.7917 18.285C17.3217 18.285 16.8795 18.1675 16.4939 17.9586C15.3694 18.4574 14.5843 19.5838 14.5843 20.8939V22.5H21V20.8939C21 19.5838 20.2149 18.4573 19.0903 17.9586H19.0895ZM10.9983 11.5265L12.2769 9.71156C11.9557 9.19188 11.7721 8.57818 11.7721 7.92182C11.7721 6.03197 13.304 4.5 15.1935 4.5C17.0832 4.5 18.615 6.03208 18.615 7.92182C18.615 9.81168 17.0831 11.3445 15.1935 11.3445C14.6138 11.3445 14.069 11.2 13.5911 10.9467L13.538 10.958L10.999 11.5256L10.9983 11.5265ZM15.7132 6.36361C15.7132 6.529 15.8473 6.66307 16.0127 6.66307H16.7203C16.8857 6.66307 17.0197 6.52901 17.0197 6.36361C17.0197 6.19821 16.8857 6.06414 16.7203 6.06414H16.0127C15.8473 6.06414 15.7132 6.1982 15.7132 6.36361ZM14.9821 7.52834C14.8167 7.52834 14.6827 7.66327 14.6827 7.8278C14.6827 7.9932 14.8167 8.12901 14.9821 8.12901H16.7212C16.8866 8.12901 17.0206 7.99408 17.0206 7.8278C17.0206 7.66328 16.8866 7.52834 16.7212 7.52834H14.9821ZM13.3014 6.36361C13.3014 6.529 13.4354 6.66307 13.6008 6.66307H14.8246C14.9899 6.66307 15.1257 6.52901 15.1257 6.36361C15.1257 6.19821 14.9908 6.06414 14.8246 6.06414H13.6008C13.4354 6.06414 13.3014 6.1982 13.3014 6.36361ZM13.3014 7.82865C13.3014 7.99405 13.4354 8.12985 13.6008 8.12985H14.1404C14.3058 8.12985 14.4399 7.99492 14.4399 7.82865C14.4399 7.66413 14.3058 7.52919 14.1404 7.52919H13.6008C13.4354 7.52919 13.3014 7.66412 13.3014 7.82865ZM13.3014 9.29456C13.3014 9.45996 13.4354 9.59403 13.6008 9.59403H16.7203C16.8857 9.59403 17.0197 9.45997 17.0197 9.29456C17.0197 9.12917 16.8857 8.9951 16.7203 8.9951H13.6008C13.4354 8.9951 13.3014 9.12916 13.3014 9.29456Z" fill="#FFBC02"/>
</g>
<defs>
<clipPath id="clip0_171_1516">
<rect width="24" height="24" fill="white" transform="translate(0 0.5)"/>
</clipPath>
</defs>
</svg>
