<svg width="250" height="250" viewBox="0 0 250 250" fill="none" xmlns="http://www.w3.org/2000/svg">
<g opacity="0.15">
<mask id="mask0_4018_1766" style="mask-type:alpha" maskUnits="userSpaceOnUse" x="1" y="0" width="248" height="248">
<path d="M1.15625 223.876C1.15625 168.648 45.9278 123.876 101.156 123.876H124.883V147.599C124.883 202.827 80.1114 247.599 24.8829 247.599H1.15625L1.15625 223.876Z" fill="white"/>
<path d="M124.879 100.153C124.879 44.9249 169.65 0.15332 224.879 0.15332L248.606 0.15332V23.8762C248.606 79.1047 203.834 123.876 148.606 123.876H124.879V100.153Z" fill="white"/>
<path d="M124.879 100.153C124.879 44.9249 80.1074 0.15332 24.8789 0.15332L1.15225 0.15332V23.8762C1.15225 79.1047 45.9238 123.876 101.152 123.876H124.879V100.153Z" fill="white"/>
<path d="M248.609 223.875C248.609 168.647 203.838 123.875 148.609 123.875H124.883V147.598C124.883 202.826 169.654 247.598 224.883 247.598H248.609V223.875Z" fill="white"/>
</mask>
<g mask="url(#mask0_4018_1766)">
<rect x="0.398438" y="0.915527" width="248.975" height="248.968" fill="white"/>
</g>
</g>
</svg>
