<svg width="248" height="248" viewBox="0 0 248 248" fill="none" xmlns="http://www.w3.org/2000/svg">
<g opacity="0.15">
<mask id="mask0_650_1788" style="mask-type:alpha" maskUnits="userSpaceOnUse" x="0" y="0" width="248" height="248">
<path d="M0.152344 223.878C0.152344 168.649 44.9239 123.878 100.152 123.878H123.879V147.601C123.879 202.829 79.1075 247.601 23.879 247.601H0.152344L0.152344 223.878Z" fill="#C2E8ED"/>
<path d="M123.879 100.154C123.879 44.9254 168.65 0.153809 223.879 0.153809L247.606 0.153809V23.8767C247.606 79.1052 202.834 123.877 147.606 123.877H123.879V100.154Z" fill="#C2E8ED"/>
<path d="M123.879 100.154C123.879 44.9254 79.1074 0.153809 23.8789 0.153809L0.152252 0.153809V23.8767C0.152252 79.1052 44.9238 123.877 100.152 123.877H123.879V100.154Z" fill="#C2E8ED"/>
<path d="M247.609 223.876C247.609 168.647 202.838 123.875 147.609 123.875H123.883V147.598C123.883 202.827 168.654 247.598 223.883 247.598H247.609V223.876Z" fill="#C2E8ED"/>
</mask>
<g mask="url(#mask0_650_1788)">
<rect x="-0.609375" y="0.91748" width="248.975" height="248.968" fill="#C2E8ED"/>
</g>
</g>
</svg>
